<svg xmlns="http://www.w3.org/2000/svg" width="500" height="500" viewBox="0 0 500 500">
<g>
<path d="M 111.15,127.00 L 111.90,127.83 L 113.40,129.72 L 114.14,130.71 L 115.62,132.87 L 117.08,135.08 L 119.77,139.95 L 121.04,142.41 L 123.11,147.32 L 123.57,148.52 L 124.33,150.82 L 125.17,154.05 L 125.31,154.74 L 125.57,155.90 L 125.69,156.44 L 125.93,157.33 L 126.18,158.17 L 126.75,159.26 L 127.07,159.73 L 127.97,160.34 L 129.95,161.12 L 132.44,161.93 L 137.31,164.14 L 139.73,165.34 L 144.38,168.27 L 146.67,169.81 L 151.01,173.36 L 153.14,175.21 L 157.10,179.30 L 159.02,181.40 L 162.51,185.93 L 164.18,188.24 L 167.11,193.12 L 168.50,195.59 L 170.79,200.74 L 173.42,208.64 L 173.68,209.64 L 174.09,212.06 L 174.29,213.33 L 174.58,216.18 L 174.84,219.11 L 174.98,225.59 L 174.99,228.84 L 174.62,235.00 L 174.49,236.47 L 174.15,239.12 L 173.49,242.54 L 173.20,243.70 L 172.43,246.12 L 172.02,247.35 L 171.04,249.88 L 170.01,252.41 L 167.47,257.51 L 166.13,260.02 L 163.17,264.70 L 162.41,265.82 L 160.87,267.89 L 158.54,270.69 L 157.84,271.47 L 156.69,272.75 L 156.16,273.35 L 155.31,274.36 L 154.92,274.85 L 154.32,275.69 L 154.05,276.10 L 153.66,276.87 L 153.32,277.64 L 153.10,279.35 L 153.07,279.83 L 153.07,280.95 L 153.12,282.96 L 153.14,283.79 L 153.15,285.36 L 153.14,286.11 L 153.09,287.41 L 153.05,288.01 L 152.95,288.89 L 152.76,289.58 L 152.68,289.65 L 152.27,289.55 L 152.03,289.46 L 151.35,289.06 L 148.72,287.06 L 147.76,286.22 L 145.96,284.90 L 145.55,284.62 L 144.89,284.24 L 144.22,284.00 L 144.08,284.00 L 143.48,284.20 L 143.14,284.32 L 142.22,284.73 L 138.85,286.49 L 138.25,286.83 L 136.79,287.58 L 136.03,287.96 L 134.38,288.71 L 133.56,289.08 L 131.94,289.75 L 129.75,290.57 L 129.16,290.77 L 128.19,291.10 L 127.74,291.26 L 127.01,291.56 L 126.35,291.85 L 125.60,292.53 L 125.30,292.91 L 125.08,294.04 L 125.00,296.65 L 125.00,297.88 L 124.69,300.38 L 124.60,300.97 L 124.36,301.97 L 123.96,303.07 L 123.86,303.26 L 123.04,303.94 L 122.55,304.32 L 121.11,305.29 L 120.34,305.80 L 118.50,306.94 L 117.55,307.51 L 115.54,308.69 L 114.53,309.26 L 112.56,310.35 L 111.59,310.87 L 109.88,311.74 L 109.08,312.13 L 107.84,312.66 L 106.77,312.93 L 106.73,312.92 L 105.98,312.54 L 105.50,312.29 L 104.02,311.51 L 103.20,311.08 L 101.18,310.01 L 100.12,309.44 L 97.77,308.18 L 89.04,303.50 L 89.02,298.37 L 89.02,297.66 L 88.97,296.46 L 88.94,295.88 L 88.81,294.92 L 88.66,294.02 L 87.94,292.74 L 87.50,292.17 L 85.98,291.28 L 85.54,291.07 L 84.46,290.65 L 82.50,289.99 L 81.95,289.82 L 80.59,289.32 L 79.88,289.05 L 78.34,288.43 L 73.95,286.45 L 69.40,284.17 L 65.45,287.55 L 64.36,288.48 L 62.40,289.94 L 61.96,290.25 L 61.26,290.68 L 60.60,290.96 L 60.48,290.97 L 60.30,290.44 L 60.22,290.10 L 60.14,288.98 L 60.11,288.37 L 60.13,286.81 L 60.29,284.13 L 60.36,283.27 L 60.47,281.86 L 60.52,281.20 L 60.56,280.11 L 60.59,279.10 L 60.35,277.70 L 60.16,277.06 L 59.37,275.94 L 57.36,273.88 L 56.74,273.28 L 55.43,271.84 L 54.77,271.09 L 53.41,269.37 L 52.04,267.60 L 49.31,263.52 L 47.98,261.44 L 45.58,257.13 L 42.72,251.00 L 41.80,248.65 L 40.36,243.84 L 39.71,241.42 L 38.81,236.50 L 38.43,234.04 L 38.07,229.06 L 37.95,226.57 L 38.13,221.58 L 38.28,219.09 L 38.98,214.13 L 39.40,211.66 L 40.63,206.78 L 41.31,204.35 L 43.07,199.59 L 46.29,192.64 L 47.10,191.11 L 49.12,188.01 L 50.19,186.46 L 52.65,183.37 L 53.93,181.83 L 56.76,178.83 L 58.20,177.35 L 61.29,174.52 L 62.86,173.14 L 66.13,170.57 L 67.77,169.32 L 71.12,167.08 L 72.80,166.00 L 76.14,164.17 L 81.04,161.98 L 86.83,159.82 L 88.58,152.69 L 88.86,151.53 L 89.64,149.02 L 90.06,147.74 L 91.06,145.07 L 92.12,142.39 L 94.67,137.03 L 95.32,135.73 L 96.68,133.27 L 97.36,132.07 L 98.71,129.89 L 99.39,128.85 L 100.69,127.08 L 102.53,125.00 L 106.19,121.50 M 93.77,275.32 L 92.94,275.42 L 92.68,275.52 L 92.25,275.76 L 92.19,275.94 L 91.27,276.69 L 90.19,277.00 L 89.57,277.00 L 87.45,277.58 L 86.02,278.43 L 85.53,278.97 L 84.58,279.87 L 84.01,280.23 L 83.73,280.31 L 83.16,280.39 L 82.86,280.32 L 82.24,280.13 L 81.87,279.93 L 80.13,279.56 L 78.82,279.69 L 78.21,279.90 L 77.04,280.40 L 76.64,280.75 L 76.00,281.50 L 76.00,281.93 L 76.53,282.47 L 77.35,282.98 L 77.94,283.28 L 79.23,283.93 L 79.98,284.27 L 81.56,284.98 L 82.39,285.33 L 85.80,286.69 L 87.27,287.19 L 88.67,287.64 L 89.22,287.78 L 90.22,288.00 L 90.51,288.00 L 91.23,288.29 L 91.58,288.81 L 91.69,289.29 L 91.88,290.38 L 91.93,291.18 L 92.00,292.97 L 92.00,294.17 L 92.30,298.25 L 92.79,300.50 L 93.17,301.35 L 94.00,302.86 L 94.53,303.31 L 95.66,304.00 L 96.33,304.00 L 97.87,303.45 L 98.92,302.61 L 99.39,302.05 L 100.25,300.85 L 100.54,300.21 L 101.00,298.93 L 101.00,298.35 L 101.29,296.69 L 101.72,296.00 L 102.00,296.00 L 102.39,296.37 L 102.62,296.95 L 102.71,297.37 L 102.87,298.30 L 102.92,298.86 L 103.00,300.03 L 103.00,300.67 L 103.44,304.59 L 103.75,305.65 L 103.96,306.08 L 104.39,306.88 L 104.65,307.17 L 105.55,308.15 L 105.89,308.43 L 106.52,308.86 L 106.81,308.87 L 107.41,308.76 L 107.79,308.51 L 108.60,307.86 L 109.17,307.35 L 110.00,306.32 L 110.42,305.47 L 110.57,304.94 L 110.83,303.82 L 110.90,303.14 L 111.00,301.70 L 111.00,300.85 L 111.08,298.96 L 111.20,297.86 L 111.29,297.42 L 111.49,296.63 L 111.61,296.38 L 111.86,296.00 L 112.00,296.00 L 112.71,296.69 L 113.00,297.70 L 113.00,298.35 L 113.59,300.53 L 114.45,302.00 L 115.00,302.50 L 116.11,303.37 L 116.76,303.70 L 117.09,303.75 L 117.76,303.78 L 118.14,303.69 L 118.94,303.44 L 119.44,303.21 L 120.74,302.39 L 121.35,301.65 L 121.57,301.08 L 121.96,299.78 L 122.12,298.80 L 122.27,297.77 L 122.34,297.16 L 122.48,295.85 L 122.56,295.09 L 122.80,292.78 L 122.94,291.53 L 123.02,291.03 L 123.18,290.10 L 123.28,289.74 L 123.49,289.07 L 123.62,288.81 L 124.26,287.97 L 124.78,287.69 L 125.97,287.19 L 126.88,286.90 L 128.59,286.29 L 129.89,285.78 L 130.57,285.50 L 133.31,284.32 L 134.38,283.78 L 136.43,282.68 L 137.24,282.13 L 137.40,281.89 L 137.55,281.42 L 137.42,281.16 L 137.03,280.60 L 136.67,280.24 L 135.76,279.61 L 134.93,279.22 L 134.44,279.06 L 132.34,278.49 L 131.29,278.43 L 127.63,278.13 L 125.80,277.88 L 125.13,277.72 L 123.94,277.37 L 123.52,277.14 L 122.77,276.63 L 122.50,276.30 L 121.73,275.81 L 120.95,275.60 L 120.42,275.56 L 119.26,275.52 L 118.52,275.56 L 116.95,275.68 L 116.00,275.80 L 110.50,276.50 L 110.26,281.00 L 109.74,285.99 L 109.18,289.59 L 108.85,291.25 L 108.51,292.87 L 108.34,293.59 L 107.99,294.97 L 107.83,295.53 L 107.50,296.55 L 107.35,296.89 L 107.06,297.46 L 106.94,297.54 L 106.33,297.11 L 105.87,296.16 L 105.64,295.44 L 105.18,293.86 L 104.98,292.93 L 104.62,291.01 L 104.51,290.00 L 104.38,288.93 L 104.25,287.83 L 104.16,287.14 L 103.79,284.05 L 103.58,282.37 L 102.83,276.24 L 97.69,275.55 L 95.45,275.33 L 94.24,275.29 M 106.95,249.29 L 106.74,249.63 L 106.63,249.94 L 106.43,250.67 L 106.33,251.18 L 106.13,252.29 L 106.03,252.99 L 105.85,254.50 L 105.76,255.39 L 105.60,257.29 L 105.53,258.39 L 105.39,260.68 L 105.33,261.98 L 105.22,264.68 L 105.17,266.18 L 105.07,272.25 L 105.06,276.16 L 105.08,277.90 L 105.15,281.22 L 105.21,282.51 L 105.27,283.73 L 105.31,284.23 L 105.39,285.13 L 105.44,285.44 L 105.89,287.84 L 106.16,288.66 L 106.43,289.41 L 106.56,289.64 L 106.81,290.00 L 106.93,290.00 L 107.38,289.62 L 107.67,288.98 L 107.79,288.49 L 108.04,287.39 L 108.15,286.67 L 108.35,285.12 L 108.44,284.19 L 108.61,282.23 L 108.67,281.10 L 108.79,278.75 L 108.83,277.45 L 108.91,274.74 L 108.93,273.27 L 108.95,270.24 L 108.94,268.61 L 108.89,264.28 L 108.82,261.66 L 108.77,260.49 L 108.67,258.23 L 108.61,257.23 L 108.48,255.33 L 108.40,254.52 L 108.24,252.99 L 108.15,252.36 L 107.97,251.19 L 107.88,250.75 L 107.68,249.95 L 107.58,249.70 L 107.38,249.28 L 107.27,249.21 L 107.06,249.17 M 84.50,194.45 L 83.43,196.56 L 83.17,197.44 L 83.06,197.97 L 82.86,199.11 L 82.78,199.81 L 82.63,201.32 L 82.57,202.25 L 82.46,204.24 L 82.42,205.45 L 82.33,208.01 L 82.29,209.55 L 82.22,212.79 L 82.19,214.71 L 81.87,232.02 L 75.39,241.76 L 71.94,247.02 L 70.05,250.01 L 69.27,251.33 L 67.84,253.84 L 67.27,254.98 L 66.23,257.21 L 65.83,258.29 L 65.11,260.44 L 64.84,261.55 L 64.36,263.81 L 64.18,265.05 L 63.87,267.63 L 63.75,269.10 L 63.53,272.19 L 63.43,274.00 L 62.74,286.50 L 65.12,284.50 L 65.82,283.89 L 66.48,283.31 L 66.90,282.94 L 68.79,281.24 L 70.00,280.15 L 72.55,277.84 L 73.97,276.55 L 76.89,273.88 L 78.39,272.51 L 89.28,262.52 L 88.54,235.51 L 88.20,224.35 L 87.96,217.16 L 87.83,213.94 L 87.70,210.80 L 87.64,209.37 L 87.52,206.63 L 87.46,205.43 L 87.35,203.17 L 87.30,202.26 L 87.19,200.58 L 87.15,200.00 L 86.49,191.50 M 126.62,194.09 L 126.51,195.43 L 126.42,196.94 L 126.38,197.96 L 126.30,200.18 L 126.25,201.52 L 126.16,204.36 L 126.12,205.98 L 126.03,209.34 L 125.99,211.18 L 125.91,214.96 L 125.87,216.97 L 125.72,225.33 L 125.66,229.77 L 125.23,262.04 L 137.36,273.51 L 140.65,276.59 L 142.14,277.96 L 145.01,280.57 L 146.19,281.61 L 147.32,282.60 L 147.81,283.01 L 148.72,283.78 L 149.08,284.07 L 149.74,284.59 L 149.95,284.75 L 150.32,284.98 L 150.38,284.99 L 150.67,284.62 L 150.80,284.03 L 150.83,283.60 L 150.86,282.66 L 150.83,282.09 L 150.75,280.90 L 150.67,280.25 L 150.40,277.73 L 150.18,275.60 L 150.07,274.40 L 149.62,269.34 L 149.44,267.00 L 149.16,263.85 L 148.94,262.03 L 148.78,261.19 L 148.02,258.01 L 147.27,256.28 L 146.45,254.50 L 145.90,253.48 L 144.72,251.36 L 143.97,250.10 L 142.35,247.45 L 141.34,245.86 L 139.21,242.51 L 137.92,240.50 L 132.15,231.50 L 131.43,213.81 L 131.22,208.87 L 131.08,206.04 L 131.00,204.83 L 130.85,202.55 L 130.77,201.58 L 130.60,199.77 L 130.51,199.01 L 130.32,197.60 L 130.21,197.02 L 129.99,195.94 L 129.86,195.49 L 129.30,193.96 L 128.93,193.40 L 127.15,190.68 M 118.58,268.00 L 114.88,268.17 L 113.13,268.47 L 112.56,268.74 L 111.59,269.38 L 111.35,269.85 L 111.00,270.90 L 111.00,271.61 L 111.03,272.56 L 111.13,272.88 L 111.39,273.44 L 111.67,273.60 L 112.35,273.87 L 112.90,273.93 L 114.16,274.00 L 115.07,274.00 L 118.44,273.73 L 120.25,273.29 L 120.93,272.95 L 122.12,272.18 L 122.47,271.68 L 123.00,270.61 L 123.00,269.96 L 122.83,268.96 L 122.51,268.50 L 122.19,268.36 L 121.43,268.13 L 120.84,268.07 L 119.51,268.00 M 97.43,268.00 L 95.71,268.01 L 94.76,268.03 L 94.39,268.06 L 93.10,268.19 L 92.75,268.33 L 92.22,268.69 L 92.15,269.00 L 92.11,269.70 L 92.18,270.21 L 93.09,272.01 L 94.23,272.90 L 95.00,273.11 L 96.62,273.48 L 97.57,273.63 L 99.49,273.87 L 100.25,273.90 L 101.70,273.85 L 102.34,273.67 L 102.53,273.47 L 102.84,272.98 L 102.91,272.58 L 103.00,271.66 L 103.00,271.00 L 102.91,269.28 L 102.64,268.57 L 102.29,268.38 L 101.41,268.10 L 100.63,268.05 L 99.78,268.01 L 99.26,268.01 L 98.12,268.00 M 101.94,165.45 L 100.70,165.55 L 98.31,165.79 L 97.28,165.97 L 95.31,166.37 L 94.48,166.62 L 92.92,167.17 L 92.30,167.50 L 91.16,168.21 L 90.74,168.62 L 90.02,169.48 L 89.81,169.97 L 89.50,170.98 L 89.50,171.55 L 89.59,173.00 L 89.75,173.66 L 89.90,173.86 L 90.25,174.19 L 90.51,174.26 L 91.10,174.32 L 91.50,174.27 L 95.23,173.86 L 97.32,173.64 L 98.17,173.55 L 99.75,173.40 L 100.38,173.35 L 101.51,173.27 L 101.92,173.25 L 102.66,173.24 L 102.89,173.25 L 103.27,173.30 L 103.34,173.35 L 103.42,173.46 L 103.36,173.54 L 103.17,173.71 L 103.00,173.82 L 102.09,174.25 L 101.23,174.55 L 100.72,174.70 L 98.49,175.27 L 97.34,175.46 L 94.67,175.85 L 93.26,176.13 L 92.72,176.43 L 91.74,177.19 L 91.39,177.89 L 91.07,178.66 L 90.93,179.15 L 90.69,180.22 L 90.60,180.88 L 90.43,182.30 L 90.38,183.16 L 90.28,184.99 L 90.25,186.07 L 90.21,188.36 L 90.22,189.70 L 90.23,192.50 L 90.25,194.12 L 90.31,197.50 L 90.36,199.43 L 90.46,203.44 L 90.52,205.69 L 90.64,210.39 L 90.71,213.01 L 90.86,218.45 L 90.94,221.46 L 91.18,230.08 L 91.34,235.58 L 91.42,238.16 L 91.58,243.21 L 91.66,245.52 L 91.82,249.99 L 91.89,251.97 L 92.04,255.75 L 92.11,257.34 L 92.24,260.31 L 92.30,261.44 L 92.42,263.48 L 92.47,264.11 L 92.51,264.67 L 92.54,264.85 L 92.58,265.12 L 92.60,265.15 L 92.87,265.38 L 93.18,265.48 L 93.91,265.67 L 94.40,265.75 L 96.67,266.00 L 98.01,266.00 L 99.81,266.04 L 100.76,266.06 L 101.13,266.01 L 101.81,265.87 L 102.07,265.68 L 102.55,265.22 L 102.75,264.81 L 103.11,263.87 L 103.27,263.16 L 103.59,261.59 L 103.76,260.51 L 104.11,258.15 L 104.33,256.62 L 104.55,255.03 L 104.67,254.13 L 104.93,252.28 L 105.07,251.25 L 105.73,247.22 L 106.15,245.19 L 106.36,244.50 L 106.78,243.35 L 106.98,243.10 L 107.40,242.83 L 107.61,243.03 L 108.02,243.65 L 108.23,244.29 L 108.65,245.80 L 108.87,246.89 L 109.30,249.30 L 109.53,250.85 L 109.98,254.16 L 110.21,256.16 L 111.37,266.00 L 122.78,266.00 L 123.37,247.75 L 123.49,243.56 L 123.58,240.38 L 123.63,238.64 L 123.72,235.06 L 123.77,233.17 L 123.87,229.31 L 123.92,227.32 L 124.11,219.23 L 124.19,215.24 L 124.28,211.27 L 124.32,209.36 L 124.39,205.60 L 124.43,203.83 L 124.91,178.16 L 121.94,177.13 L 120.32,176.68 L 118.90,176.36 L 118.08,176.20 L 114.62,175.60 L 112.97,175.42 L 110.58,175.07 L 109.14,174.79 L 108.54,174.64 L 107.43,174.33 L 107.05,174.18 L 106.42,173.87 L 106.34,173.74 L 106.51,173.35 L 107.09,173.21 L 107.62,173.19 L 108.83,173.20 L 109.66,173.25 L 111.48,173.41 L 112.61,173.54 L 116.58,173.99 L 118.71,174.22 L 119.55,174.29 L 121.09,174.39 L 121.67,174.39 L 122.72,174.35 L 123.10,174.27 L 123.75,174.06 L 123.97,173.89 L 124.34,173.49 L 124.45,173.22 L 124.72,171.90 L 124.80,170.87 L 124.88,168.92 L 124.77,168.02 L 124.59,167.72 L 124.16,167.19 L 123.79,167.00 L 122.93,166.66 L 122.30,166.49 L 120.42,166.18 L 118.53,165.96 L 117.36,165.87 L 114.90,165.68 L 113.55,165.60 L 110.80,165.46 L 109.41,165.41 L 104.74,165.37 M 127.30,165.36 L 127.13,166.34 L 127.04,167.70 L 127.00,168.66 L 126.94,170.75 L 126.93,171.98 L 126.91,174.56 L 126.91,175.96 L 126.94,179.22 L 126.98,181.02 L 127.01,181.76 L 127.10,183.17 L 127.16,183.76 L 127.31,184.87 L 127.42,185.35 L 127.94,187.11 L 128.40,187.95 L 129.45,189.67 L 130.23,190.80 L 133.49,195.50 L 133.78,211.50 L 133.93,217.88 L 134.05,221.78 L 134.12,223.42 L 134.18,225.00 L 134.22,225.69 L 134.29,227.00 L 134.32,227.53 L 134.39,228.51 L 134.42,228.86 L 134.49,229.47 L 134.52,229.61 L 135.07,230.97 L 135.75,232.31 L 136.22,233.12 L 137.23,234.84 L 137.82,235.77 L 139.04,237.66 L 139.69,238.61 L 141.49,241.29 L 142.53,242.85 L 142.92,243.48 L 143.64,244.61 L 143.84,244.96 L 144.13,245.50 L 144.09,245.50 L 144.27,245.99 L 144.68,246.75 L 145.00,247.31 L 145.71,248.53 L 146.15,249.27 L 147.09,250.82 L 147.61,251.66 L 148.43,252.97 L 148.78,253.51 L 149.45,254.53 L 149.73,254.93 L 150.76,256.29 L 151.16,256.64 L 151.91,257.13 L 152.28,257.12 L 153.02,256.96 L 153.48,256.71 L 154.62,256.23 L 155.64,255.91 L 156.23,255.76 L 158.76,255.20 L 160.00,255.05 L 162.61,254.63 L 163.78,254.21 L 164.21,253.80 L 165.01,252.81 L 165.42,251.98 L 165.83,251.08 L 166.06,250.52 L 166.55,249.32 L 166.83,248.60 L 167.86,245.61 L 168.58,243.17 L 168.93,241.83 L 169.61,239.10 L 169.91,237.75 L 170.48,235.06 L 170.69,233.84 L 171.16,231.01 L 171.40,229.40 L 171.48,228.68 L 171.72,226.04 L 171.68,224.78 L 171.51,222.22 L 171.25,220.63 L 170.97,218.97 L 170.78,218.00 L 170.39,215.95 L 170.14,214.74 L 167.64,205.19 L 166.63,202.28 L 166.07,200.92 L 164.92,198.25 L 164.29,197.01 L 161.58,192.33 L 159.46,189.20 L 158.26,187.67 L 155.79,184.62 L 154.45,183.15 L 151.70,180.26 L 150.26,178.89 L 147.32,176.22 L 145.81,174.99 L 142.76,172.62 L 141.23,171.58 L 138.15,169.58 L 136.62,168.75 L 133.59,167.21 L 132.13,166.63 L 128.90,165.55 L 128.10,165.36 L 127.82,165.33 L 127.36,165.30 M 84.71,165.30 L 83.63,165.66 L 82.88,165.97 L 81.25,166.66 L 80.30,167.10 L 78.31,168.04 L 77.25,168.58 L 73.65,170.63 L 71.17,172.27 L 69.92,173.19 L 64.89,177.17 L 62.50,179.43 L 57.85,184.08 L 55.86,186.47 L 53.94,188.86 L 53.10,190.04 L 51.51,192.38 L 50.86,193.50 L 46.77,202.00 L 44.71,207.93 L 44.01,211.00 L 42.85,217.19 L 42.61,220.36 L 42.36,226.72 L 42.58,229.94 L 42.84,233.48 L 42.98,235.42 L 43.05,236.21 L 43.18,237.68 L 43.24,238.27 L 43.37,239.39 L 43.44,239.84 L 43.75,241.45 L 43.97,242.12 L 44.45,243.44 L 44.81,244.29 L 45.81,246.92 L 46.40,248.69 L 46.55,249.29 L 47.50,251.80 L 48.35,253.10 L 48.91,253.58 L 50.13,254.42 L 50.90,254.70 L 52.55,255.16 L 53.56,255.26 L 55.71,255.49 L 56.57,255.59 L 57.37,255.69 L 57.66,255.73 L 58.16,255.81 L 58.27,255.83 L 59.25,255.73 L 60.09,255.40 L 60.58,255.12 L 61.59,254.50 L 62.14,254.10 L 63.28,253.23 L 63.87,252.73 L 66.27,250.53 L 67.41,249.26 L 69.62,246.67 L 70.49,245.36 L 72.20,242.79 L 73.23,241.27 L 73.68,240.58 L 75.36,238.06 L 76.01,237.02 L 77.19,235.06 L 77.62,234.19 L 78.38,232.49 L 78.64,231.63 L 79.09,229.88 L 79.23,228.87 L 79.46,226.75 L 79.52,225.44 L 79.63,222.63 L 79.67,220.86 L 79.70,219.03 L 79.72,218.00 L 79.77,215.87 L 79.80,214.68 L 80.22,197.50 L 83.76,191.63 L 87.29,185.76 L 86.68,175.75 L 86.40,171.82 L 86.19,169.47 L 86.09,168.52 L 85.88,166.77 L 85.79,166.20 L 85.61,165.27 L 85.53,165.20 M 97.00,162.54 L 97.12,163.25 L 97.22,163.56 L 97.76,163.86 L 98.10,163.97 L 99.33,163.95 L 99.69,163.93 L 100.59,163.84 L 102.25,163.65 L 103.69,163.47 L 106.91,163.20 L 107.68,163.14 L 109.07,163.06 L 109.73,163.03 L 110.75,163.01 L 111.52,163.01 L 112.56,162.92 L 113.01,162.84 L 113.54,162.46 L 113.75,162.21 L 113.93,161.32 L 114.00,159.21 L 114.00,158.76 L 114.01,158.84 L 114.01,159.46 L 114.01,163.50 L 119.01,163.74 L 121.63,163.80 L 122.79,163.73 L 123.14,163.61 L 123.71,163.31 L 123.83,163.05 L 124.00,162.46 L 124.00,162.04 L 123.68,158.50 L 123.16,155.81 L 122.77,154.36 L 121.91,151.39 L 121.37,149.84 L 120.22,146.72 L 119.56,145.16 L 118.18,142.03 L 117.43,140.52 L 115.89,137.53 L 115.08,136.14 L 113.43,133.43 L 112.59,132.23 L 110.90,129.94 L 110.06,129.00 L 106.02,124.50 L 103.72,127.26 L 101.24,130.53 L 99.63,132.95 L 98.86,134.26 L 95.87,139.73 L 94.58,142.65 L 92.18,148.57 L 91.30,151.49 L 90.48,154.38 L 90.16,155.77 L 89.60,158.52 L 89.43,159.81 L 89.26,161.11 L 89.20,161.64 L 89.10,162.62 L 89.09,163.01 L 89.10,163.71 L 89.16,163.96 L 89.31,164.41 L 89.45,164.56 L 89.78,164.80 L 90.02,164.84 L 90.55,164.90 L 90.91,164.88 L 91.69,164.79 L 92.18,164.70 L 93.23,164.50 L 93.88,164.38 L 95.32,163.98 L 96.04,163.64 L 96.29,163.43 L 96.71,162.98 L 96.83,162.70 L 97.00,162.10 M 112.07,148.09 L 112.37,149.27 L 112.05,148.04 M 110.73,143.98 L 111.00,144.77 L 112.02,147.92 L 110.98,144.73 L 110.71,143.94 L 110.14,142.53 L 109.28,140.70 L 110.15,142.55 M 101.78,145.64 L 101.78,145.64 L 101.91,145.56 M 97.17,160.26 L 97.43,158.92 L 97.62,158.12 L 98.52,154.65 L 99.06,152.84 L 99.17,152.50 L 99.04,152.91 L 98.50,154.74 L 97.61,158.26 L 97.43,159.08 L 97.17,160.46 L 97.00,162.00 L 97.00,161.73 Z" fill="rgba(35,32,75,1)"/>
<path d="M 171.48,228.68 L 171.40,229.40 L 171.16,231.01 L 170.69,233.84 L 170.48,235.06 L 169.91,237.75 L 169.61,239.10 L 168.93,241.83 L 168.58,243.17 L 167.86,245.61 L 166.83,248.60 L 166.55,249.32 L 166.06,250.52 L 165.83,251.08 L 165.42,251.98 L 165.01,252.81 L 164.21,253.80 L 163.78,254.21 L 162.61,254.63 L 160.00,255.05 L 158.76,255.20 L 156.23,255.76 L 155.64,255.91 L 154.62,256.23 L 153.48,256.71 L 153.02,256.96 L 152.28,257.12 L 151.91,257.13 L 151.16,256.64 L 150.76,256.29 L 149.73,254.93 L 149.45,254.53 L 148.78,253.51 L 148.43,252.97 L 147.61,251.66 L 147.09,250.82 L 146.15,249.27 L 145.71,248.53 L 145.00,247.31 L 144.68,246.75 L 144.27,245.99 L 144.09,245.50 L 144.13,245.50 L 143.84,244.96 L 143.64,244.61 L 142.95,243.52 L 143.79,244.53 L 144.20,244.87 L 144.99,245.41 L 145.36,245.49 L 146.10,245.53 L 146.50,245.40 L 147.61,245.11 L 148.60,244.91 L 149.17,244.80 L 151.60,244.41 L 152.78,244.28 L 155.04,243.91 L 156.13,243.57 L 156.53,243.31 L 157.25,242.72 L 157.55,242.29 L 158.11,241.32 L 158.39,240.65 L 159.79,238.03 L 160.93,236.54 L 161.64,235.89 L 163.14,234.66 L 164.06,234.11 L 166.03,233.05 L 167.21,232.56 L 169.85,231.07 L 171.00,229.87 L 171.31,229.05 L 171.50,228.46 M 85.61,165.27 L 85.79,166.20 L 85.88,166.77 L 86.09,168.52 L 86.19,169.47 L 86.40,171.82 L 86.68,175.75 L 87.29,185.76 L 83.76,191.63 L 83.27,192.44 L 84.60,190.02 L 85.27,188.41 L 85.48,187.57 L 85.81,185.82 L 85.89,184.76 L 86.00,182.47 L 86.00,180.98 L 85.95,178.30 L 85.84,176.84 L 85.75,176.28 L 85.53,175.25 L 85.36,174.89 L 84.98,174.28 L 84.73,174.12 L 84.17,173.90 L 83.81,173.92 L 83.03,174.07 L 82.55,174.27 L 81.52,174.77 L 80.90,175.14 L 79.58,175.96 L 78.81,176.48 L 77.13,177.53 L 76.25,177.98 L 75.91,178.08 L 75.32,178.21 L 75.12,178.15 L 74.78,177.95 L 74.70,177.73 L 74.43,177.47 L 74.19,177.53 L 74.05,177.67 L 73.44,178.49 L 73.14,179.25 L 71.80,181.28 L 70.66,182.00 L 70.02,182.00 L 68.59,182.33 L 68.00,182.83 L 68.00,183.14 L 67.70,183.91 L 67.24,184.68 L 66.90,185.17 L 65.28,187.30 L 64.25,188.44 L 60.95,192.25 L 59.89,193.52 L 59.44,194.08 L 58.59,195.15 L 58.28,195.55 L 56.99,197.19 L 56.39,197.78 L 56.15,197.84 L 55.69,197.82 L 55.44,197.60 L 54.90,197.03 L 54.53,196.56 L 53.45,195.55 L 53.20,195.47 L 53.12,195.51 L 53.00,195.67 L 53.00,195.83 L 52.27,196.97 L 51.19,197.74 L 50.50,198.00 L 48.78,198.94 L 48.14,199.61 L 48.08,199.92 L 48.13,200.49 L 48.43,200.69 L 49.21,201.00 L 49.89,201.00 L 50.72,201.25 L 51.21,201.64 L 51.43,201.92 L 52.19,203.32 L 52.40,204.25 L 52.71,206.24 L 52.65,207.30 L 52.40,209.44 L 52.04,210.41 L 51.26,213.13 L 50.87,215.17 L 50.81,215.97 L 50.17,218.23 L 49.36,219.20 L 48.79,219.34 L 47.53,220.27 L 47.00,221.28 L 47.00,221.84 L 46.43,223.43 L 45.49,224.07 L 44.75,224.18 L 43.54,224.51 L 43.03,224.92 L 42.89,225.32 L 42.68,226.26 L 42.66,227.01 L 42.66,228.75 L 42.71,230.00 L 43.02,234.78 L 43.17,236.28 L 43.24,236.92 L 43.39,238.12 L 43.47,238.54 L 44.01,241.57 L 52.32,241.54 L 54.84,241.54 L 56.26,241.57 L 56.87,241.60 L 59.06,241.77 L 59.91,241.95 L 61.49,242.39 L 62.22,242.76 L 63.69,243.59 L 64.57,244.19 L 66.71,245.61 L 67.54,246.11 L 68.32,246.56 L 68.60,246.70 L 69.08,246.93 L 69.17,246.94 L 69.60,246.67 L 69.67,246.60 L 69.62,246.67 L 67.41,249.26 L 66.27,250.53 L 63.87,252.73 L 63.28,253.23 L 62.14,254.10 L 61.59,254.50 L 60.58,255.12 L 60.09,255.40 L 59.25,255.73 L 58.27,255.83 L 58.16,255.81 L 57.66,255.73 L 57.37,255.69 L 56.57,255.59 L 55.71,255.49 L 53.56,255.26 L 52.55,255.16 L 50.90,254.70 L 50.13,254.42 L 48.91,253.58 L 48.35,253.10 L 47.50,251.80 L 46.55,249.29 L 46.40,248.69 L 45.81,246.92 L 44.81,244.29 L 44.45,243.44 L 43.97,242.12 L 43.75,241.45 L 43.44,239.84 L 43.37,239.39 L 43.24,238.27 L 43.18,237.68 L 43.05,236.21 L 42.98,235.42 L 42.84,233.48 L 42.58,229.94 L 42.36,226.72 L 42.61,220.36 L 42.85,217.19 L 44.01,211.00 L 44.71,207.93 L 46.77,202.00 L 50.86,193.50 L 51.51,192.38 L 53.10,190.04 L 53.94,188.86 L 55.86,186.47 L 57.85,184.08 L 62.50,179.43 L 64.89,177.17 L 69.92,173.19 L 71.17,172.27 L 73.65,170.63 L 77.25,168.58 L 78.31,168.04 L 80.30,167.10 L 81.25,166.66 L 82.88,165.97 L 83.63,165.66 L 84.71,165.30 L 85.53,165.20 M 76.01,237.02 L 75.36,238.06 L 73.71,240.55 L 73.94,240.16 L 74.38,239.48 L 76.13,236.73 L 76.71,235.85 M 77.19,235.06 L 77.04,235.30 L 77.23,234.96 M 133.99,213.00 L 134.08,216.28 L 134.14,218.26 L 134.17,219.15 L 134.29,222.47 L 134.37,223.82 L 134.54,226.32 L 134.67,227.35 L 134.97,229.29 L 135.18,230.12 L 135.65,231.73 L 135.97,232.49 L 136.45,233.51 L 136.22,233.12 L 135.75,232.31 L 135.07,230.97 L 134.52,229.61 L 134.49,229.47 L 134.42,228.86 L 134.39,228.51 L 134.32,227.53 L 134.29,227.00 L 134.22,225.69 L 134.18,225.00 L 134.12,223.42 L 134.05,221.78 L 133.93,217.88 L 133.78,211.50 L 133.52,197.12 M 79.80,214.68 L 79.77,215.87 L 79.72,218.00 L 79.70,219.03 L 79.67,220.86 L 79.63,222.63 L 79.52,225.44 L 79.46,226.75 L 79.23,228.87 L 79.09,229.88 L 79.07,229.94 L 79.25,228.48 L 79.32,227.56 L 79.45,225.58 L 79.50,224.36 L 79.60,221.74 L 79.65,220.13 L 79.74,216.72 L 79.79,214.68 L 79.90,210.38 M 127.82,165.33 L 128.10,165.36 L 128.90,165.55 L 132.13,166.63 L 133.59,167.21 L 136.62,168.75 L 138.15,169.58 L 141.23,171.58 L 142.76,172.62 L 145.81,174.99 L 147.32,176.22 L 150.26,178.89 L 151.70,180.26 L 154.45,183.15 L 155.79,184.62 L 158.26,187.67 L 159.46,189.20 L 161.58,192.33 L 164.29,197.01 L 164.92,198.25 L 166.07,200.92 L 166.63,202.28 L 167.64,205.19 L 170.14,214.74 L 170.39,215.95 L 170.41,216.08 L 162.93,215.50 L 160.15,207.45 L 157.26,200.34 L 155.05,196.16 L 153.70,194.20 L 150.82,190.35 L 149.03,188.41 L 147.18,186.45 L 146.15,185.44 L 144.02,183.40 L 142.83,182.33 L 141.36,180.99 L 140.58,180.26 L 140.28,179.97 L 139.74,179.42 L 139.56,179.20 L 139.25,178.81 L 139.18,178.65 L 139.11,178.14 L 139.35,177.98 L 140.03,177.71 L 140.61,177.56 L 142.39,176.85 L 142.94,176.30 L 142.91,176.03 L 142.63,175.51 L 142.19,175.30 L 141.10,174.91 L 140.25,174.82 L 138.89,174.54 L 138.23,174.23 L 138.00,174.00 L 137.59,173.47 L 137.46,173.11 L 137.25,172.29 L 137.18,171.75 L 136.67,169.78 L 136.19,169.09 L 135.94,169.07 L 135.46,169.23 L 135.29,169.64 L 135.00,170.68 L 135.00,171.53 L 134.59,173.44 L 133.95,174.32 L 133.46,174.55 L 132.37,174.87 L 131.70,174.81 L 130.26,174.53 L 129.44,174.15 L 127.00,173.04 L 127.00,179.59 L 127.11,183.19 L 127.27,184.60 L 127.16,183.76 L 127.10,183.17 L 127.01,181.76 L 126.98,181.02 L 126.94,179.22 L 126.91,175.96 L 126.91,174.56 L 126.93,171.98 L 126.94,170.75 L 127.00,168.66 L 127.04,167.70 L 127.13,166.34 L 127.30,165.36 L 127.36,165.30 M 110.17,179.20 L 112.40,179.68 L 113.21,180.11 L 115.13,181.37 L 116.30,182.38 L 116.83,182.95 L 118.76,185.41 L 119.44,186.81 L 120.57,189.68 L 120.78,191.14 L 120.93,192.60 L 120.90,193.32 L 120.78,194.74 L 120.61,195.42 L 119.40,198.13 L 118.11,200.06 L 117.29,200.99 L 115.57,202.80 L 114.63,203.57 L 112.73,204.98 L 111.80,205.45 L 110.09,206.25 L 109.36,206.49 L 107.95,206.83 L 107.27,206.83 L 105.88,206.72 L 105.09,206.49 L 103.42,205.93 L 102.38,205.47 L 99.38,203.60 L 97.50,201.92 L 96.69,200.94 L 95.17,198.91 L 94.61,197.86 L 93.67,195.73 L 93.48,194.72 L 93.36,193.02 L 93.45,191.78 L 93.57,191.13 L 94.25,188.47 L 94.84,187.16 L 96.15,184.60 L 96.96,183.52 L 98.69,181.53 L 99.64,180.90 L 102.65,179.64 L 105.11,179.14 L 106.41,179.06 L 108.99,179.03 M 107.24,183.00 L 103.75,183.51 L 101.74,184.31 L 100.91,184.89 L 99.38,186.17 L 98.80,186.95 L 97.78,188.57 L 97.48,189.47 L 97.03,191.29 L 97.03,192.24 L 97.18,194.14 L 97.50,195.06 L 98.31,196.89 L 98.98,197.73 L 100.49,199.34 L 101.52,200.03 L 103.31,201.06 L 104.21,201.41 L 105.10,201.73 L 105.49,201.83 L 106.22,201.99 L 106.50,201.99 L 109.01,201.41 L 110.89,200.53 L 111.79,199.94 L 113.51,198.68 L 114.16,198.01 L 115.29,196.67 L 115.48,196.07 L 116.22,194.61 L 116.81,194.00 L 117.07,194.00 L 117.67,193.82 L 117.92,193.54 L 117.98,193.33 L 118.04,192.29 L 117.83,191.58 L 117.24,190.05 L 116.73,189.20 L 115.57,187.45 L 114.82,186.60 L 113.01,184.73 L 111.96,183.89 L 111.42,183.64 L 110.31,183.22 L 109.63,183.13 L 108.19,183.00 M 128.09,187.34 L 128.53,188.14 L 129.48,189.71 L 129.45,189.67 L 128.40,187.95 L 127.94,187.11 L 127.59,185.93 Z" fill="rgba(48,71,123,1)"/>
<path d="M 120.51,268.06 L 118.84,268.22 L 117.67,268.59 L 117.25,268.89 L 116.52,269.56 L 116.31,270.01 L 116.00,271.00 L 116.00,271.61 L 116.11,272.78 L 116.34,273.16 L 116.89,273.80 L 117.05,273.84 L 115.07,274.00 L 114.16,274.00 L 112.90,273.93 L 112.35,273.87 L 111.67,273.60 L 111.39,273.44 L 111.13,272.88 L 111.03,272.56 L 111.00,271.61 L 111.00,270.90 L 111.35,269.85 L 111.59,269.38 L 112.56,268.74 L 113.13,268.47 L 114.88,268.17 L 118.58,268.00 L 119.51,268.00 M 99.26,268.01 L 99.78,268.01 L 100.63,268.05 L 101.41,268.10 L 102.29,268.38 L 102.64,268.57 L 102.91,269.28 L 103.00,271.00 L 103.00,271.66 L 102.91,272.58 L 102.84,272.98 L 102.53,273.47 L 102.34,273.67 L 101.70,273.85 L 100.25,273.90 L 99.49,273.87 L 97.57,273.63 L 96.62,273.48 L 95.00,273.11 L 94.23,272.90 L 93.09,272.01 L 92.18,270.21 L 92.11,269.70 L 92.15,269.00 L 92.22,268.69 L 92.75,268.33 L 93.10,268.19 L 94.39,268.06 L 94.76,268.03 L 95.71,268.01 L 97.43,268.00 L 98.12,268.00 M 122.47,271.68 L 122.12,272.18 L 121.44,272.62 L 122.50,271.62 M 123.00,269.96 L 123.00,270.61 L 122.53,271.55 L 122.99,270.50 L 122.99,269.97 L 122.88,269.27 M 122.51,268.50 L 122.76,268.86 L 122.52,268.58 L 122.25,268.39 M 90.52,204.66 L 91.18,218.70 L 91.59,225.52 L 92.01,232.21 L 92.22,235.24 L 92.43,238.20 L 92.54,239.57 L 92.75,242.22 L 92.85,243.41 L 93.06,245.69 L 93.16,246.66 L 93.35,248.50 L 93.44,249.22 L 93.62,250.55 L 93.70,250.99 L 93.86,251.74 L 93.93,251.87 L 95.15,253.41 L 96.06,253.92 L 96.54,253.91 L 97.50,253.71 L 97.98,253.35 L 98.93,252.46 L 99.38,251.75 L 99.62,251.09 L 99.81,250.34 L 99.91,249.83 L 100.12,248.72 L 100.23,248.05 L 100.46,246.63 L 100.59,245.82 L 101.09,242.33 L 101.35,240.32 L 101.87,236.13 L 102.12,233.90 L 102.62,229.40 L 102.84,227.17 L 103.27,222.76 L 103.45,220.72 L 103.76,216.79 L 103.86,215.13 L 103.95,213.54 L 103.98,212.85 L 104.02,211.53 L 104.02,211.00 L 104.21,210.14 L 104.52,210.26 L 104.77,210.67 L 105.09,211.89 L 105.30,213.38 L 105.39,214.38 L 105.58,216.52 L 105.66,217.76 L 105.80,220.31 L 105.84,221.67 L 106.00,225.51 L 106.12,227.79 L 106.18,228.71 L 106.30,230.39 L 106.35,230.93 L 106.46,231.79 L 106.51,231.84 L 106.65,231.77 L 106.76,231.50 L 106.82,231.25 L 106.95,230.67 L 107.02,230.25 L 107.17,229.32 L 107.26,228.72 L 107.43,227.42 L 107.53,226.62 L 107.74,224.92 L 107.86,223.91 L 108.10,221.79 L 108.24,220.55 L 108.52,217.97 L 108.68,216.50 L 109.43,209.50 L 110.10,219.00 L 110.37,223.58 L 110.54,227.13 L 110.61,229.01 L 110.74,232.81 L 110.79,234.63 L 110.87,238.20 L 110.89,239.75 L 111.02,244.35 L 111.17,246.84 L 111.27,247.79 L 111.49,249.48 L 111.61,250.02 L 111.86,250.89 L 111.99,251.01 L 112.25,251.03 L 112.37,250.71 L 112.61,249.86 L 112.71,249.10 L 112.89,247.35 L 112.95,246.12 L 113.06,243.45 L 113.07,241.75 L 113.34,233.90 L 113.49,231.48 L 113.58,230.48 L 113.77,228.62 L 113.86,228.00 L 114.06,226.97 L 114.19,226.57 L 114.24,226.52 L 114.36,226.53 L 114.41,226.69 L 114.52,227.12 L 114.58,227.50 L 114.69,228.38 L 114.74,229.00 L 114.85,230.36 L 114.91,231.23 L 115.03,233.09 L 115.09,234.21 L 115.22,236.60 L 115.29,238.00 L 115.56,244.12 L 115.72,248.20 L 115.79,250.08 L 115.90,253.70 L 115.94,255.18 L 115.97,256.60 L 115.98,257.20 L 116.00,258.32 L 116.00,258.75 L 116.00,265.00 L 122.00,265.00 L 122.00,256.58 L 122.07,253.29 L 122.18,251.33 L 122.25,250.54 L 122.43,249.09 L 122.53,248.63 L 122.75,247.88 L 122.87,247.83 L 123.05,247.06 L 123.18,245.87 L 123.24,244.97 L 123.37,242.97 L 123.43,241.70 L 123.56,238.99 L 123.62,237.40 L 123.75,234.08 L 123.76,233.51 L 123.72,235.06 L 123.63,238.64 L 123.58,240.38 L 123.49,243.56 L 123.37,247.75 L 122.78,266.00 L 111.37,266.00 L 110.21,256.16 L 109.98,254.16 L 109.53,250.85 L 109.30,249.30 L 108.87,246.89 L 108.65,245.80 L 108.23,244.29 L 108.02,243.65 L 107.61,243.03 L 107.40,242.83 L 106.98,243.10 L 106.78,243.35 L 106.36,244.50 L 106.15,245.19 L 105.73,247.22 L 105.07,251.25 L 104.93,252.28 L 104.67,254.13 L 104.55,255.03 L 104.33,256.62 L 104.11,258.15 L 103.76,260.51 L 103.59,261.59 L 103.27,263.16 L 103.11,263.87 L 102.75,264.81 L 102.55,265.22 L 102.07,265.68 L 101.81,265.87 L 101.13,266.01 L 100.76,266.06 L 99.81,266.04 L 98.01,266.00 L 96.67,266.00 L 94.40,265.75 L 93.91,265.67 L 93.18,265.48 L 92.87,265.38 L 92.60,265.15 L 92.58,265.12 L 92.54,264.85 L 92.51,264.67 L 92.47,264.11 L 92.42,263.48 L 92.30,261.44 L 92.24,260.31 L 92.11,257.34 L 92.04,255.75 L 91.89,251.97 L 91.82,249.99 L 91.66,245.52 L 91.58,243.21 L 91.42,238.16 L 91.34,235.58 L 91.18,230.08 L 90.94,221.46 L 90.86,218.45 L 90.71,213.01 L 90.64,210.39 L 90.52,205.69 L 90.46,203.44 L 90.44,202.76 M 69.17,246.94 L 69.15,246.94 L 69.29,246.86 M 146.08,245.53 L 146.10,245.53 L 146.50,245.40 L 146.10,245.53 M 129.44,174.15 L 130.26,174.53 L 131.70,174.81 L 132.37,174.87 L 133.29,174.60 L 133.01,174.83 L 132.25,175.13 L 129.50,176.21 L 131.84,177.11 L 133.65,178.32 L 134.57,179.45 L 134.71,179.99 L 135.07,180.92 L 135.31,181.15 L 135.82,181.46 L 136.07,181.40 L 136.55,181.13 L 136.72,180.79 L 137.00,179.99 L 137.00,179.41 L 137.51,178.16 L 138.27,177.42 L 138.75,177.22 L 139.60,176.75 L 139.83,176.39 L 139.76,176.15 L 139.50,175.59 L 139.17,175.18 L 138.40,174.31 L 138.89,174.54 L 140.25,174.82 L 141.10,174.91 L 142.19,175.30 L 142.63,175.51 L 142.91,176.03 L 142.94,176.30 L 142.39,176.85 L 140.61,177.56 L 140.03,177.71 L 139.35,177.98 L 139.11,178.14 L 139.18,178.65 L 139.25,178.81 L 139.56,179.20 L 139.74,179.42 L 140.28,179.97 L 140.58,180.26 L 141.36,180.99 L 142.83,182.33 L 144.02,183.40 L 146.15,185.44 L 147.18,186.45 L 149.03,188.41 L 150.82,190.35 L 153.70,194.20 L 155.05,196.16 L 157.26,200.34 L 160.15,207.45 L 162.93,215.50 L 169.16,215.98 L 166.35,216.37 L 163.42,216.94 L 161.60,217.49 L 160.76,217.84 L 159.14,218.58 L 158.40,219.03 L 156.98,219.97 L 156.35,220.52 L 155.13,221.65 L 154.60,222.29 L 153.60,223.61 L 153.18,224.34 L 152.40,225.85 L 152.09,226.67 L 151.53,228.35 L 151.34,229.25 L 150.90,230.70 L 150.51,231.34 L 150.20,231.53 L 149.49,231.84 L 148.96,231.91 L 147.76,232.00 L 146.92,232.00 L 143.82,232.29 L 141.81,232.74 L 140.95,233.05 L 139.35,233.71 L 138.83,234.07 L 138.36,234.44 L 138.22,234.62 L 138.00,234.99 L 138.00,235.17 L 138.26,235.90 L 138.66,236.71 L 138.95,237.24 L 139.60,238.38 L 139.99,239.02 L 140.80,240.34 L 141.25,241.03 L 142.46,242.85 L 142.95,243.48 L 143.84,244.56 L 143.79,244.53 L 142.82,243.36 L 142.30,242.69 L 141.00,240.78 L 140.16,239.52 L 138.79,237.46 L 138.15,236.48 L 137.14,234.81 L 136.68,234.01 L 135.97,232.49 L 135.65,231.73 L 135.18,230.12 L 134.97,229.29 L 134.67,227.35 L 134.54,226.32 L 134.37,223.82 L 134.29,222.47 L 134.17,219.15 L 134.14,218.26 L 134.08,216.28 L 133.99,213.00 L 133.47,195.50 L 130.24,190.82 L 129.53,189.79 L 128.53,188.14 L 128.09,187.34 L 127.55,185.82 L 127.33,185.03 L 127.11,183.19 L 127.00,179.59 L 127.00,173.04 M 69.45,182.29 L 69.00,182.72 L 69.00,183.00 L 69.45,183.71 L 70.11,184.00 L 70.53,184.00 L 71.78,184.44 L 72.48,185.09 L 72.64,185.50 L 73.04,186.29 L 73.29,186.53 L 73.82,186.92 L 74.07,186.96 L 74.56,186.93 L 74.73,186.75 L 75.00,186.27 L 75.00,185.86 L 75.51,184.67 L 76.27,183.76 L 76.75,183.39 L 77.69,182.65 L 78.00,182.34 L 78.00,182.25 L 77.90,182.11 L 77.69,182.08 L 77.17,182.04 L 76.75,182.03 L 75.51,181.57 L 75.00,180.91 L 75.00,180.50 L 74.74,179.44 L 74.35,179.00 L 74.11,179.00 L 73.31,179.44 L 72.80,180.09 L 72.64,180.50 L 71.78,181.56 L 70.95,182.00 L 70.66,182.00 L 71.80,181.28 L 73.14,179.25 L 73.44,178.49 L 74.05,177.67 L 74.19,177.53 L 74.43,177.47 L 74.70,177.73 L 74.78,177.95 L 75.12,178.15 L 75.32,178.21 L 75.91,178.08 L 76.25,177.98 L 77.13,177.53 L 78.81,176.48 L 79.58,175.96 L 80.90,175.14 L 81.52,174.77 L 82.55,174.27 L 83.03,174.07 L 83.81,173.92 L 84.17,173.90 L 84.73,174.12 L 84.98,174.28 L 85.36,174.89 L 85.53,175.25 L 85.75,176.28 L 85.84,176.84 L 85.95,178.30 L 86.00,180.98 L 86.00,182.47 L 85.89,184.76 L 85.81,185.82 L 85.48,187.57 L 85.27,188.41 L 84.60,190.02 L 83.11,192.73 L 82.40,193.90 L 81.45,195.77 L 81.24,196.25 L 80.92,197.29 L 80.77,197.84 L 80.54,199.14 L 80.43,199.84 L 80.27,201.57 L 80.20,202.49 L 80.09,204.80 L 80.03,206.04 L 79.94,209.09 L 79.79,214.68 L 79.74,216.72 L 79.65,220.13 L 79.60,221.74 L 79.50,224.36 L 79.45,225.58 L 79.32,227.56 L 79.25,228.48 L 79.07,229.95 L 78.98,230.64 L 78.73,231.75 L 78.60,232.27 L 78.26,233.16 L 76.83,235.68 L 76.13,236.73 L 74.38,239.48 L 73.94,240.16 L 73.72,240.53 L 68.90,235.49 L 66.60,233.31 L 64.88,231.85 L 63.99,231.17 L 62.21,229.87 L 61.38,229.34 L 59.76,228.36 L 59.09,228.04 L 56.70,226.80 L 55.52,226.02 L 55.10,225.63 L 54.37,224.83 L 54.13,224.38 L 53.74,223.43 L 53.63,222.88 L 53.23,221.46 L 52.88,220.80 L 52.64,220.58 L 52.11,220.22 L 51.75,220.13 L 50.95,220.00 L 50.43,220.00 L 48.34,220.48 L 47.47,221.29 L 47.30,221.94 L 46.58,223.01 L 47.00,221.84 L 47.00,221.28 L 47.53,220.27 L 48.79,219.34 L 49.36,219.20 L 50.17,218.23 L 50.81,215.97 L 50.87,215.17 L 51.26,213.13 L 52.04,210.41 L 52.40,209.44 L 52.65,207.30 L 52.71,206.24 L 52.40,204.25 L 52.19,203.32 L 51.43,201.92 L 51.21,201.64 L 50.72,201.25 L 49.89,201.00 L 49.21,201.00 L 48.43,200.69 L 48.13,200.49 L 48.08,199.92 L 48.14,199.61 L 48.78,198.94 L 50.50,198.00 L 51.19,197.74 L 52.27,196.97 L 53.00,195.83 L 53.00,195.67 L 53.12,195.51 L 53.20,195.47 L 53.43,195.54 L 53.30,195.75 L 52.99,196.32 L 52.78,196.75 L 51.75,198.34 L 51.05,199.00 L 50.80,199.00 L 50.60,199.19 L 50.62,199.49 L 50.70,199.70 L 51.21,200.74 L 51.70,201.40 L 52.45,202.39 L 52.71,202.68 L 53.18,203.13 L 53.34,203.16 L 53.64,203.10 L 53.78,202.89 L 54.05,202.34 L 54.22,201.90 L 55.10,200.55 L 55.87,199.98 L 56.22,199.97 L 56.65,199.66 L 56.27,199.22 L 55.75,198.92 L 54.49,197.70 L 53.95,196.67 L 53.93,196.20 L 53.90,195.97 L 54.53,196.56 L 54.90,197.03 L 55.44,197.60 L 55.69,197.82 L 56.15,197.84 L 56.39,197.78 L 56.99,197.19 L 58.28,195.55 L 58.59,195.15 L 59.44,194.08 L 59.89,193.52 L 60.95,192.25 L 64.25,188.44 L 65.28,187.30 L 66.90,185.17 L 67.24,184.68 L 67.70,183.91 L 68.00,183.14 L 68.00,182.83 L 68.59,182.33 L 70.02,182.00 L 70.53,182.00 M 171.00,229.87 L 170.38,230.51 L 171.00,229.86 M 171.46,221.54 L 171.57,222.44 L 171.72,224.00 L 171.77,224.75 L 171.79,226.03 L 171.78,226.65 L 171.66,227.70 L 171.58,228.20 L 171.31,229.05 L 171.17,229.43 L 171.32,229.03 L 171.59,228.16 L 171.66,227.66 L 171.78,226.59 L 171.78,225.96 L 171.76,224.65 L 171.70,223.89 L 171.56,222.29 L 171.44,221.37 L 171.20,219.42 M 42.88,225.35 L 42.68,226.29 L 42.66,227.05 L 42.67,228.76 L 42.66,228.75 L 42.66,227.01 L 42.68,226.26 L 42.89,225.32 L 43.00,225.00 M 43.02,224.95 L 43.03,224.92 L 43.29,224.71 M 43.53,224.51 L 43.54,224.51 L 43.83,224.43 M 141.98,211.75 L 140.88,213.34 L 139.95,214.00 L 139.53,214.00 L 138.34,214.27 L 138.00,214.67 L 138.05,214.91 L 138.30,215.43 L 138.62,215.67 L 139.41,216.14 L 140.00,216.29 L 141.41,217.14 L 142.00,218.01 L 142.00,218.47 L 142.11,219.26 L 142.29,219.45 L 142.72,219.67 L 143.00,219.50 L 143.71,218.67 L 144.00,217.92 L 144.00,217.56 L 144.66,216.40 L 145.63,215.69 L 146.25,215.49 L 148.50,214.75 L 146.35,214.32 L 144.64,213.37 L 143.73,212.30 L 143.55,211.69 L 142.90,209.50 M 121.94,177.13 L 124.91,178.16 L 124.43,203.83 L 124.39,205.60 L 124.32,209.36 L 124.28,211.27 L 124.20,215.20 L 124.20,215.19 L 124.23,212.80 L 124.73,178.10 L 121.94,177.13 M 72.99,197.37 L 72.98,196.75 L 72.94,195.69 L 72.85,195.29 L 72.78,195.24 L 72.61,195.22 L 72.48,195.35 L 72.20,195.70 L 72.00,196.00 L 71.31,197.28 L 71.02,198.04 L 71.02,198.25 L 71.12,198.64 L 71.30,198.78 L 71.72,199.00 L 71.29,199.34 L 71.00,200.17 L 71.00,200.49 L 70.51,201.54 L 69.35,203.17 L 68.96,203.60 L 68.48,204.22 L 68.29,204.51 L 68.19,205.00 L 68.19,205.24 L 68.48,205.78 L 69.35,206.83 L 69.80,207.33 L 70.51,208.46 L 71.00,209.83 L 71.00,210.34 L 71.27,210.85 L 71.45,211.02 L 71.97,210.90 L 72.24,210.77 L 72.88,210.09 L 73.20,209.68 L 73.82,208.50 L 74.13,207.81 L 75.11,206.73 L 76.62,206.00 L 76.95,206.00 L 77.30,205.88 L 77.43,205.80 L 77.39,205.49 L 77.31,205.30 L 76.84,204.73 L 75.65,203.55 L 74.92,202.87 L 73.78,201.51 L 73.54,201.19 L 73.21,200.65 L 73.00,200.05 L 73.00,199.76 L 72.71,199.31 L 72.00,199.00 L 72.70,198.34 M 155.05,205.56 L 154.78,205.88 L 154.31,206.59 L 154.22,207.03 L 154.15,207.95 L 154.33,208.42 L 154.81,209.19 L 155.19,209.36 L 156.02,209.55 L 156.46,209.38 L 157.51,208.61 L 157.91,207.91 L 157.95,207.52 L 157.93,206.74 L 157.76,206.38 L 157.31,205.69 L 156.91,205.45 L 155.77,205.25 M 65.50,204.00 L 63.73,204.29 L 63.00,204.72 L 63.00,205.00 L 63.28,205.52 L 63.73,205.71 L 64.81,206.00 L 65.50,206.00 L 67.27,205.71 L 68.00,205.27 L 68.00,205.00 L 67.27,204.29 L 66.19,204.00 M 109.63,183.13 L 110.31,183.22 L 111.42,183.64 L 111.96,183.89 L 112.43,184.27 L 111.88,184.16 L 111.51,184.19 L 110.73,184.31 L 110.28,184.46 L 109.34,184.82 L 108.82,185.08 L 107.74,185.67 L 107.14,186.06 L 104.61,187.81 L 103.16,189.03 L 101.39,190.53 L 100.41,191.39 L 100.01,191.76 L 98.66,193.08 L 98.29,193.59 L 97.76,194.51 L 97.73,194.90 L 97.82,195.67 L 98.04,196.08 L 98.64,197.09 L 98.93,197.44 L 99.46,198.00 L 99.61,198.00 L 100.61,197.50 L 101.71,196.73 L 102.42,196.18 L 103.91,194.99 L 104.73,194.30 L 106.42,192.87 L 107.26,192.12 L 108.95,190.61 L 109.72,189.89 L 111.20,188.48 L 111.80,187.88 L 112.89,186.74 L 113.22,186.34 L 113.72,185.66 L 113.68,185.54 L 113.53,185.27 L 114.82,186.60 L 115.57,187.45 L 116.73,189.20 L 117.24,190.05 L 117.83,191.58 L 118.04,192.29 L 117.98,193.33 L 117.92,193.54 L 117.67,193.82 L 117.07,194.00 L 116.81,194.00 L 116.22,194.61 L 115.48,196.07 L 115.29,196.67 L 114.16,198.01 L 113.51,198.68 L 111.79,199.94 L 110.89,200.53 L 109.01,201.41 L 106.50,201.99 L 106.22,201.99 L 105.53,201.84 L 106.01,201.84 L 106.67,201.56 L 108.08,200.81 L 108.99,200.10 L 109.94,199.34 L 110.49,198.87 L 111.64,197.87 L 112.29,197.27 L 114.34,195.41 L 115.57,194.31 L 116.08,193.86 L 117.01,193.04 L 117.31,192.78 L 117.82,192.35 L 117.87,192.32 L 117.65,191.68 L 117.04,190.90 L 116.59,190.45 L 115.52,189.70 L 114.75,189.65 L 114.20,189.93 L 113.62,190.25 L 113.26,190.50 L 112.50,191.07 L 112.03,191.44 L 111.04,192.26 L 110.44,192.78 L 109.16,193.88 L 108.40,194.55 L 105.43,197.26 L 104.05,198.66 L 103.63,199.19 L 102.98,200.12 L 102.91,200.44 L 102.93,200.84 L 101.52,200.03 L 100.49,199.34 L 98.98,197.73 L 98.31,196.89 L 97.50,195.06 L 97.18,194.14 L 97.03,192.24 L 97.03,191.29 L 97.48,189.47 L 97.78,188.57 L 98.80,186.95 L 99.38,186.17 L 100.91,184.89 L 101.74,184.31 L 103.75,183.51 L 107.24,183.00 L 108.19,183.00 M 144.53,187.53 L 144.13,187.75 L 143.83,188.01 L 143.18,188.63 L 142.75,189.09 L 140.50,191.50 L 142.50,193.69 L 143.35,194.62 L 143.65,194.89 L 144.15,195.30 L 144.33,195.32 L 144.64,195.23 L 144.77,195.00 L 145.04,194.41 L 145.22,193.94 L 146.10,192.56 L 146.87,191.98 L 147.22,191.97 L 147.65,191.66 L 147.27,191.22 L 146.75,190.92 L 145.51,189.73 L 145.00,188.73 L 145.00,188.29 L 144.89,187.63 L 144.70,187.47 M 98.61,175.26 L 97.52,175.46 L 95.07,175.93 L 93.75,176.24 L 93.23,176.42 L 92.26,176.82 L 91.90,177.08 L 91.72,177.23 L 91.74,177.19 L 92.72,176.43 L 93.26,176.13 L 94.67,175.85 L 97.34,175.46 L 98.49,175.27 L 100.48,174.76 M 136.19,169.09 L 136.67,169.78 L 137.18,171.75 L 137.25,172.29 L 137.46,173.11 L 137.59,173.47 L 136.45,172.35 L 135.82,171.84 L 135.60,171.74 L 135.24,171.65 L 135.14,171.77 L 135.00,172.09 L 135.00,172.40 L 134.78,173.12 L 134.61,173.39 L 135.00,171.53 L 135.00,170.68 L 135.29,169.64 L 135.46,169.23 L 135.94,169.07 M 169.85,231.07 L 167.21,232.56 L 169.85,231.07 Z" fill="rgba(96,117,159,1)"/>
<path d="M 101.00,298.93 L 100.54,300.21 L 100.25,300.85 L 99.39,302.05 L 99.21,302.26 L 99.45,301.95 L 100.29,300.67 L 100.56,299.97 L 101.00,298.53 M 93.65,302.17 L 94.64,303.13 L 95.12,303.46 L 96.05,304.00 L 95.66,304.00 L 94.53,303.31 L 94.00,302.86 L 93.57,302.08 M 98.92,302.61 L 98.86,302.66 L 98.93,302.60 M 120.74,302.39 L 120.69,302.42 L 120.97,302.11 M 92.32,298.23 L 92.36,298.52 L 92.30,298.25 L 92.27,297.81 M 92.00,287.54 L 92.02,291.12 L 92.04,293.18 L 92.07,294.05 L 92.12,295.70 L 92.17,296.39 L 92.18,296.56 L 92.00,294.17 L 92.00,292.97 L 91.93,291.18 L 91.88,290.38 L 91.69,289.29 L 91.58,288.81 L 91.23,288.29 L 90.51,288.00 L 90.22,288.00 L 89.22,287.78 L 88.67,287.64 L 87.27,287.19 L 85.80,286.69 L 82.39,285.33 L 81.56,284.98 L 79.98,284.27 L 79.23,283.93 L 77.94,283.28 L 77.35,282.98 L 76.53,282.47 L 76.00,281.93 L 76.00,281.50 L 76.64,280.75 L 77.04,280.40 L 78.21,279.90 L 78.82,279.69 L 80.13,279.56 L 81.87,279.93 L 82.24,280.13 L 82.86,280.32 L 83.16,280.39 L 83.73,280.31 L 84.01,280.23 L 84.58,279.87 L 85.53,278.97 L 86.02,278.43 L 87.45,277.58 L 89.57,277.00 L 90.19,277.00 L 91.27,276.69 L 92.00,276.09 M 122.50,276.30 L 122.77,276.63 L 123.52,277.14 L 123.94,277.37 L 125.13,277.72 L 125.80,277.88 L 127.63,278.13 L 131.29,278.43 L 132.34,278.49 L 134.44,279.06 L 134.93,279.22 L 135.76,279.61 L 136.67,280.24 L 137.03,280.60 L 137.42,281.16 L 137.55,281.42 L 137.40,281.89 L 137.24,282.13 L 136.43,282.68 L 134.38,283.78 L 133.31,284.32 L 130.57,285.50 L 129.89,285.78 L 128.59,286.29 L 126.88,286.90 L 125.97,287.19 L 124.78,287.69 L 124.26,287.97 L 123.62,288.81 L 123.49,289.07 L 123.28,289.74 L 123.18,290.10 L 123.02,291.03 L 122.94,291.53 L 122.80,292.78 L 122.56,295.09 L 122.48,295.85 L 122.42,296.45 L 122.44,296.18 L 122.47,295.31 L 122.53,293.46 L 122.56,292.34 L 122.60,289.98 L 122.62,288.59 L 122.63,283.66 L 122.58,280.74 L 122.53,279.56 L 122.43,277.41 L 122.36,276.72 L 122.29,276.17 M 106.93,290.00 L 106.81,290.00 L 106.74,289.89 L 106.81,289.92 L 107.11,289.85 M 108.15,286.67 L 108.04,287.39 L 107.79,288.49 L 107.67,288.98 L 107.38,289.62 L 107.25,289.73 L 107.38,289.48 L 107.74,288.60 L 107.90,287.89 L 108.17,286.50 M 87.15,200.00 L 87.19,200.58 L 87.30,202.26 L 87.35,203.17 L 87.46,205.43 L 87.52,206.63 L 87.64,209.37 L 87.70,210.80 L 87.83,213.94 L 87.96,217.16 L 88.20,224.35 L 88.54,235.51 L 89.28,262.52 L 78.39,272.51 L 76.89,273.88 L 73.97,276.55 L 72.55,277.84 L 70.00,280.15 L 68.79,281.24 L 66.90,282.94 L 66.48,283.31 L 65.82,283.89 L 65.12,284.50 L 62.74,286.50 L 63.43,274.00 L 63.53,272.19 L 63.75,269.10 L 63.87,267.63 L 64.18,265.05 L 64.36,263.81 L 64.84,261.55 L 65.11,260.44 L 65.83,258.29 L 66.23,257.21 L 67.27,254.98 L 67.84,253.84 L 69.27,251.33 L 70.05,250.01 L 71.94,247.02 L 75.39,241.76 L 81.87,232.02 L 82.19,214.71 L 82.22,212.79 L 82.29,209.55 L 82.33,208.01 L 82.42,205.45 L 82.46,204.24 L 82.57,202.25 L 82.63,201.32 L 82.78,199.81 L 82.86,199.11 L 83.06,197.97 L 83.17,197.44 L 83.43,196.56 L 84.50,194.45 L 86.49,191.50 M 105.18,281.65 L 105.31,283.96 L 105.38,284.85 L 105.44,285.46 L 105.44,285.44 L 105.39,285.13 L 105.31,284.23 L 105.27,283.73 L 105.21,282.51 L 105.15,281.22 L 105.13,280.57 M 128.93,193.40 L 129.30,193.96 L 129.86,195.49 L 129.99,195.94 L 130.21,197.02 L 130.32,197.60 L 130.51,199.01 L 130.60,199.77 L 130.77,201.58 L 130.85,202.55 L 131.00,204.83 L 131.08,206.04 L 131.22,208.87 L 131.43,213.81 L 132.15,231.50 L 137.92,240.50 L 139.21,242.51 L 141.34,245.86 L 142.35,247.45 L 143.97,250.10 L 144.72,251.36 L 145.90,253.48 L 146.45,254.50 L 147.27,256.28 L 148.02,258.01 L 148.78,261.19 L 148.94,262.03 L 149.16,263.85 L 149.44,267.00 L 149.62,269.34 L 150.07,274.40 L 150.18,275.60 L 150.40,277.73 L 150.67,280.25 L 150.75,280.90 L 150.83,282.09 L 150.86,282.66 L 150.83,283.60 L 150.80,284.03 L 150.67,284.62 L 150.38,284.99 L 150.32,284.98 L 149.95,284.75 L 149.74,284.59 L 149.08,284.07 L 148.72,283.78 L 147.81,283.01 L 147.32,282.60 L 146.19,281.61 L 145.01,280.57 L 142.14,277.96 L 140.65,276.59 L 137.36,273.51 L 125.23,262.04 L 125.66,229.77 L 125.72,225.33 L 125.87,216.97 L 125.91,214.96 L 125.99,211.18 L 126.03,209.34 L 126.12,205.98 L 126.16,204.36 L 126.25,201.52 L 126.30,200.18 L 126.38,197.96 L 126.42,196.94 L 126.51,195.43 L 126.62,194.09 L 127.15,190.68 M 102.83,276.24 L 103.50,281.71 L 103.11,279.47 L 102.74,277.95 L 102.54,277.44 L 102.12,276.56 L 101.88,276.33 L 101.48,276.06 M 119.35,275.52 L 117.48,275.65 L 115.98,275.83 L 110.50,276.50 L 116.00,275.80 L 116.95,275.68 L 118.52,275.56 L 119.26,275.52 M 97.69,275.55 L 100.89,275.98 L 100.17,275.94 L 99.35,275.86 L 98.86,275.80 L 96.78,275.53 L 95.76,275.36 M 107.27,249.21 L 107.38,249.28 L 107.58,249.70 L 107.68,249.95 L 107.88,250.75 L 107.97,251.19 L 108.15,252.36 L 108.24,252.99 L 108.40,254.52 L 108.48,255.33 L 108.61,257.23 L 108.67,258.23 L 108.77,260.49 L 108.82,261.66 L 108.89,264.28 L 108.92,266.63 L 108.92,266.59 L 108.84,265.32 L 108.78,264.83 L 108.65,263.93 L 108.56,263.60 L 108.36,263.03 L 108.23,262.84 L 107.95,262.55 L 107.77,262.48 L 106.97,262.46 L 106.40,262.68 L 105.73,263.43 L 105.41,264.44 L 105.30,265.28 L 105.20,266.17 L 105.17,266.62 L 105.17,266.18 L 105.22,264.68 L 105.33,261.98 L 105.39,260.68 L 105.53,258.39 L 105.60,257.29 L 105.76,255.39 L 105.85,254.50 L 106.03,252.99 L 106.13,252.29 L 106.33,251.18 L 106.43,250.67 L 106.63,249.94 L 106.74,249.63 L 106.95,249.29 L 107.06,249.17 M 77.56,263.00 L 76.43,263.24 L 75.84,263.59 L 75.65,263.83 L 75.36,264.33 L 75.36,264.60 L 75.46,265.13 L 75.69,265.36 L 76.35,265.85 L 76.71,265.94 L 77.46,266.03 L 77.80,265.94 L 78.43,265.68 L 78.65,265.44 L 79.00,264.88 L 79.00,264.50 L 78.58,263.44 L 77.96,263.00 M 139.08,262.00 L 137.58,262.44 L 137.00,263.11 L 137.00,263.57 L 137.17,264.40 L 137.46,264.62 L 138.17,264.92 L 138.67,264.82 L 140.13,264.18 L 140.68,263.55 L 140.73,263.23 L 140.67,262.60 L 140.40,262.37 L 139.69,262.00 M 241.49,242.31 L 241.64,242.54 L 241.47,243.46 L 240.46,245.41 L 240.07,246.01 L 239.58,246.89 L 239.38,247.30 L 239.28,247.98 L 239.27,248.32 L 239.55,249.05 L 240.38,250.46 L 240.88,251.22 L 241.51,252.30 L 241.76,252.77 L 241.90,253.37 L 241.92,253.62 L 241.58,253.87 L 240.55,254.00 L 240.15,254.00 L 239.27,253.54 L 238.22,252.44 L 238.03,252.08 L 237.72,251.64 L 237.57,251.46 L 237.28,251.37 L 237.13,251.37 L 236.78,251.64 L 236.05,252.44 L 235.75,252.81 L 234.90,253.38 L 234.47,253.64 L 233.57,253.94 L 233.14,254.05 L 232.46,254.00 L 232.18,253.93 L 232.00,253.46 L 232.00,253.39 L 232.13,253.06 L 232.22,252.86 L 232.49,252.34 L 233.67,250.38 L 234.06,249.79 L 234.54,248.91 L 234.74,248.50 L 234.83,247.78 L 234.83,247.42 L 234.52,246.59 L 233.61,244.92 L 233.28,244.35 L 232.84,243.50 L 232.66,243.12 L 232.53,242.61 L 232.50,242.38 L 232.67,242.14 L 233.24,242.00 L 233.62,242.00 L 234.52,242.32 L 235.68,243.08 L 236.07,243.47 L 236.99,243.62 L 238.84,242.87 L 239.55,242.42 L 240.59,242.08 L 241.03,241.99 M 394.39,241.97 L 395.00,242.37 L 395.30,242.63 L 395.92,243.51 L 396.23,244.02 L 396.86,245.39 L 397.84,248.00 L 398.10,248.76 L 398.50,250.04 L 398.68,250.65 L 398.92,251.63 L 399.02,252.08 L 399.10,252.77 L 399.12,253.08 L 399.02,253.50 L 398.95,253.68 L 398.68,253.84 L 398.52,253.89 L 398.07,253.81 L 397.82,253.74 L 397.17,253.44 L 395.99,252.76 L 395.59,252.51 L 394.92,252.20 L 394.60,252.08 L 394.00,252.02 L 393.70,252.02 L 393.08,252.20 L 392.01,252.76 L 391.53,253.06 L 390.56,253.52 L 390.10,253.71 L 389.28,253.94 L 388.90,254.01 L 388.35,253.97 L 388.13,253.92 L 388.00,253.59 L 388.00,253.53 L 388.17,252.99 L 388.28,252.66 L 388.63,251.66 L 388.82,251.11 L 389.31,249.79 L 390.14,247.59 L 390.50,246.63 L 391.20,245.09 L 391.54,244.37 L 392.20,243.31 L 392.52,242.84 L 393.15,242.27 L 393.47,242.04 L 394.08,241.95 M 329.97,242.29 L 330.29,242.38 L 330.72,242.61 L 331.00,243.00 L 331.00,243.27 L 330.41,243.71 L 329.00,244.00 L 328.44,244.00 L 327.58,244.44 L 327.00,245.50 L 327.00,245.92 L 327.58,246.56 L 329.00,247.00 L 329.55,247.00 L 330.41,247.29 L 331.00,248.00 L 331.00,248.27 L 330.41,248.71 L 329.00,249.00 L 328.44,249.00 L 327.58,249.44 L 327.00,250.50 L 327.00,250.92 L 327.58,251.56 L 329.00,252.00 L 329.55,252.00 L 330.41,252.29 L 331.00,253.00 L 331.00,253.14 L 330.72,253.39 L 330.55,253.51 L 329.97,253.71 L 327.50,254.00 L 324.00,254.00 L 324.00,242.00 L 328.46,242.00 M 271.38,242.13 L 271.72,242.25 L 272.25,242.99 L 272.49,243.44 L 272.81,244.83 L 273.00,247.56 L 273.00,248.38 L 273.08,249.64 L 273.13,250.21 L 273.33,251.01 L 273.45,251.36 L 273.80,251.77 L 274.50,252.00 L 274.91,252.00 L 275.56,252.29 L 276.00,253.00 L 276.00,253.14 L 275.77,253.39 L 275.62,253.51 L 275.15,253.71 L 273.09,254.00 L 272.39,254.00 L 271.44,253.89 L 271.03,253.79 L 270.53,253.24 L 270.32,252.88 L 270.09,251.57 L 270.04,251.18 L 269.96,250.20 L 269.92,249.68 L 269.84,248.40 L 269.80,247.63 L 269.77,246.19 L 269.77,245.50 L 269.82,244.31 L 269.86,243.77 L 269.99,242.97 L 270.25,242.34 L 270.67,242.09 M 434.97,242.29 L 435.29,242.38 L 435.72,242.61 L 436.00,243.00 L 436.00,243.27 L 435.41,243.71 L 434.00,244.00 L 433.44,244.00 L 432.58,244.44 L 432.00,245.50 L 432.00,245.91 L 432.44,246.56 L 433.50,247.00 L 433.91,247.00 L 434.56,247.29 L 435.00,248.00 L 435.00,248.27 L 434.56,248.71 L 433.50,249.00 L 433.09,249.00 L 432.44,249.44 L 432.00,250.50 L 432.00,250.92 L 432.58,251.56 L 434.00,252.00 L 434.55,252.00 L 435.41,252.29 L 436.00,253.00 L 436.00,253.14 L 435.72,253.39 L 435.55,253.51 L 434.97,253.71 L 432.50,254.00 L 429.00,254.00 L 429.00,242.00 L 433.46,242.00 M 220.97,242.29 L 221.29,242.38 L 221.72,242.61 L 222.00,243.00 L 222.00,243.27 L 221.41,243.71 L 220.00,244.00 L 219.44,244.00 L 218.58,244.44 L 218.00,245.50 L 218.00,245.92 L 218.58,246.56 L 220.00,247.00 L 220.55,247.00 L 221.41,247.29 L 222.00,248.00 L 222.00,248.27 L 221.41,248.71 L 220.00,249.00 L 219.44,249.00 L 218.58,249.44 L 218.00,250.50 L 218.00,250.92 L 218.58,251.56 L 220.00,252.00 L 220.55,252.00 L 221.41,252.29 L 222.00,253.00 L 222.00,253.14 L 221.72,253.39 L 221.55,253.51 L 220.97,253.71 L 218.50,254.00 L 215.00,254.00 L 215.00,242.00 L 219.46,242.00 M 312.23,242.37 L 313.03,242.59 L 314.05,243.42 L 314.46,243.90 L 314.66,245.21 L 313.95,247.60 L 313.68,248.10 L 313.34,248.92 L 313.20,249.32 L 313.12,250.00 L 313.81,252.06 L 314.07,252.48 L 314.37,253.06 L 314.48,253.32 L 314.47,253.65 L 314.42,253.79 L 314.08,253.93 L 313.16,254.00 L 312.65,254.00 L 311.53,253.34 L 310.21,251.75 L 309.11,249.50 L 308.44,251.75 L 308.29,252.24 L 308.00,252.96 L 307.85,253.29 L 307.57,253.69 L 307.43,253.86 L 307.16,253.96 L 307.02,253.98 L 306.78,253.79 L 306.67,253.65 L 306.47,253.18 L 306.37,252.91 L 306.22,252.17 L 306.08,251.37 L 306.00,249.00 L 306.00,247.62 L 305.99,245.25 L 305.99,244.73 L 305.99,243.94 L 305.98,243.25 L 305.98,243.15 L 306.24,242.94 L 306.40,242.83 L 306.95,242.63 L 309.31,242.20 L 310.46,242.10 M 375.25,242.19 L 376.25,242.26 L 377.60,242.44 L 378.18,242.54 L 378.87,242.90 L 379.15,243.12 L 379.40,243.84 L 379.50,245.50 L 379.50,246.13 L 379.40,247.05 L 379.32,247.46 L 378.99,248.01 L 378.80,248.25 L 378.16,248.54 L 376.75,248.82 L 376.21,248.88 L 375.41,249.08 L 375.05,249.20 L 374.57,249.57 L 374.36,249.78 L 374.13,250.37 L 374.00,251.57 L 374.00,252.31 L 373.60,253.34 L 372.50,254.00 L 372.21,254.00 L 371.77,253.72 L 371.58,253.52 L 371.31,252.74 L 371.20,252.28 L 371.07,250.88 L 371.02,250.09 L 371.00,247.94 L 371.00,241.89 M 256.40,242.22 L 258.19,242.58 L 258.60,242.69 L 259.29,242.99 L 260.03,243.53 L 260.45,244.04 L 260.73,245.15 L 260.78,245.71 L 260.39,246.77 L 260.13,247.27 L 259.18,248.08 L 257.24,248.81 L 256.64,248.90 L 255.59,249.71 L 254.57,251.56 L 254.44,252.08 L 254.16,252.86 L 254.02,253.21 L 253.73,253.66 L 253.58,253.84 L 253.30,253.97 L 253.16,253.99 L 252.89,253.81 L 252.77,253.69 L 252.54,253.21 L 252.43,252.94 L 252.25,252.20 L 252.17,251.79 L 252.07,250.78 L 252.02,250.25 L 252.00,249.00 L 252.00,247.62 L 251.99,245.25 L 251.99,244.73 L 251.99,243.94 L 251.98,243.25 L 251.97,243.05 L 252.26,242.74 L 252.44,242.60 L 253.03,242.40 L 253.67,242.22 L 255.48,242.18 M 359.24,242.42 L 361.09,243.62 L 361.41,244.01 L 361.77,244.54 L 361.89,244.76 L 361.77,244.97 L 361.65,245.04 L 360.98,245.00 L 359.25,244.69 L 358.28,244.50 L 356.98,244.53 L 356.44,244.61 L 356.05,245.04 L 355.97,245.29 L 356.54,245.95 L 358.53,247.01 L 359.22,247.27 L 360.48,248.14 L 361.64,249.50 L 361.80,249.91 L 361.83,250.70 L 361.80,251.08 L 361.50,251.78 L 361.32,252.12 L 360.76,252.69 L 360.45,252.96 L 359.69,253.39 L 358.89,253.77 L 356.97,253.95 L 356.49,253.94 L 355.52,253.72 L 355.04,253.58 L 354.12,253.10 L 353.59,252.76 L 353.19,252.03 L 353.09,251.67 L 353.41,251.08 L 353.63,250.83 L 354.45,250.62 L 356.00,251.00 L 356.58,251.31 L 357.53,251.48 L 358.46,251.07 L 358.54,250.94 L 358.47,250.60 L 358.39,250.42 L 358.06,250.01 L 356.27,248.80 L 355.79,248.57 L 355.02,248.06 L 354.67,247.79 L 354.16,247.20 L 353.50,244.99 L 353.50,244.47 L 353.63,243.72 L 353.72,243.38 L 354.09,242.92 L 354.32,242.71 L 355.03,242.45 L 356.59,242.20 L 357.58,242.10 M 416.06,242.28 L 417.80,243.20 L 418.31,243.71 L 418.81,244.49 L 418.97,244.84 L 418.75,245.31 L 418.55,245.52 L 417.58,245.71 L 415.25,245.72 L 414.40,245.67 L 413.23,245.67 L 412.72,245.70 L 412.10,245.94 L 411.85,246.09 L 411.61,246.66 L 411.50,248.00 L 411.50,248.57 L 411.61,249.34 L 411.70,249.67 L 412.10,250.06 L 412.36,250.22 L 413.23,250.33 L 415.25,250.28 L 416.22,250.22 L 417.58,250.29 L 418.16,250.35 L 418.75,250.69 L 418.96,250.89 L 418.81,251.51 L 417.80,252.80 L 417.35,253.25 L 416.04,253.75 L 415.33,253.94 L 413.76,253.94 L 412.97,253.88 L 411.47,253.40 L 410.76,253.10 L 409.65,252.17 L 409.13,251.59 L 408.47,250.14 L 408.21,249.39 L 408.06,247.77 L 408.05,246.97 L 408.43,245.45 L 409.57,243.57 L 410.04,243.11 L 411.40,242.49 L 412.13,242.24 L 413.75,242.05 L 414.55,242.01 M 291.95,242.08 L 294.24,243.25 L 294.88,243.75 L 295.70,245.17 L 296.03,245.93 L 296.22,247.66 L 296.24,248.52 L 295.80,250.23 L 294.43,252.43 L 293.89,252.97 L 292.54,253.61 L 291.83,253.86 L 290.30,253.92 L 289.53,253.89 L 288.02,253.38 L 287.29,253.06 L 286.00,252.00 L 285.33,251.33 L 284.58,249.91 L 284.29,249.19 L 284.20,247.74 L 284.23,247.02 L 284.69,245.67 L 284.98,245.02 L 285.88,243.90 L 286.37,243.37 L 287.60,242.58 L 288.24,242.24 L 289.68,241.92 L 290.41,241.83 M 289.84,245.00 L 288.74,245.35 L 288.24,245.58 L 287.55,246.32 L 287.27,246.73 L 287.07,247.77 L 287.39,249.57 L 287.52,249.91 L 287.90,250.40 L 288.11,250.61 L 288.62,250.87 L 289.15,251.07 L 290.35,250.86 L 290.95,250.66 L 291.96,249.75 L 292.41,249.22 L 292.82,247.75 L 292.88,247.16 L 292.89,246.32 L 292.87,245.95 L 292.62,245.48 L 292.46,245.29 L 291.88,245.10 L 290.54,245.00 M 393.72,247.00 L 393.29,247.44 L 393.00,248.50 L 393.00,248.91 L 393.29,249.56 L 394.00,250.00 L 394.27,250.00 L 394.71,249.56 L 394.89,249.29 L 395.00,248.50 L 395.00,248.09 L 394.71,247.44 L 394.00,247.00 M 374.35,244.47 L 374.00,245.42 L 374.00,245.85 L 374.47,246.53 L 375.58,247.00 L 376.02,247.00 L 376.59,246.65 L 376.80,246.44 L 376.77,245.81 L 376.62,245.35 L 376.08,244.72 L 375.79,244.46 L 375.15,244.26 L 374.85,244.21 M 309.86,244.26 L 309.30,244.58 L 308.63,245.53 L 308.41,246.09 L 308.53,246.68 L 309.56,246.82 L 309.98,246.73 L 310.66,246.31 L 310.94,246.07 L 311.13,245.52 L 311.14,245.10 L 310.84,244.58 L 310.66,244.37 L 310.13,244.26 M 255.32,244.43 L 255.00,245.50 L 255.00,245.96 L 255.32,246.57 L 256.07,246.81 L 256.37,246.71 L 256.83,246.28 L 257.03,246.04 L 257.15,245.50 L 257.15,245.24 L 256.83,244.72 L 256.07,244.19 L 255.78,244.09 M 268.52,190.86 L 269.93,191.01 L 272.45,191.54 L 273.66,191.84 L 275.78,192.67 L 276.79,193.12 L 278.51,194.24 L 279.32,194.84 L 280.64,196.27 L 281.25,197.02 L 282.16,198.74 L 282.57,199.63 L 283.08,201.65 L 283.38,205.00 L 283.38,206.47 L 282.94,209.04 L 282.65,210.26 L 281.59,212.36 L 280.98,213.36 L 279.27,215.04 L 275.94,217.18 L 274.85,217.71 L 271.96,218.52 L 270.44,218.87 L 267.03,219.30 L 265.30,219.47 L 261.85,219.47 L 260.16,219.42 L 257.12,218.96 L 256.06,218.74 L 254.15,218.18 L 253.22,217.87 L 251.58,217.12 L 250.80,216.73 L 249.43,215.80 L 248.78,215.31 L 247.68,214.19 L 247.17,213.61 L 246.33,212.31 L 245.95,211.63 L 245.38,210.13 L 245.12,209.35 L 244.80,207.66 L 244.62,204.88 L 244.62,203.70 L 244.92,201.57 L 245.13,200.54 L 245.85,198.69 L 246.26,197.80 L 247.38,196.24 L 247.99,195.50 L 249.51,194.23 L 250.32,193.63 L 252.25,192.66 L 253.26,192.21 L 255.58,191.54 L 256.79,191.24 L 259.50,190.86 L 264.00,190.63 L 265.61,190.63 M 312.37,191.09 L 313.30,191.21 L 314.97,191.56 L 317.11,192.25 L 318.10,192.67 L 320.01,193.83 L 320.94,194.45 L 322.54,195.83 L 323.28,196.53 L 324.32,197.90 L 325.00,199.69 L 325.00,199.92 L 324.53,200.30 L 324.22,200.47 L 323.26,200.72 L 322.73,200.83 L 321.42,200.95 L 320.73,201.00 L 319.23,201.00 L 317.71,200.98 L 314.73,200.58 L 314.04,200.45 L 312.87,200.11 L 311.56,199.47 L 310.93,198.99 L 309.27,198.40 L 308.40,198.16 L 306.49,198.06 L 305.53,198.07 L 303.66,198.45 L 301.22,199.56 L 300.81,199.85 L 300.18,200.49 L 299.89,200.83 L 299.49,201.63 L 299.32,202.06 L 299.12,203.10 L 299.00,205.00 L 299.00,205.72 L 299.12,206.90 L 299.20,207.46 L 299.49,208.37 L 299.67,208.80 L 300.18,209.51 L 301.22,210.44 L 301.92,210.93 L 303.66,211.55 L 304.57,211.80 L 306.49,211.94 L 307.45,211.95 L 309.27,211.60 L 311.56,210.53 L 311.88,210.29 L 312.87,209.89 L 313.41,209.71 L 314.73,209.42 L 316.11,209.16 L 319.23,209.00 L 319.99,208.98 L 321.42,209.05 L 322.10,209.10 L 323.26,209.28 L 323.79,209.39 L 324.53,209.70 L 325.00,210.31 L 325.00,210.80 L 324.34,212.06 L 323.92,212.72 L 322.62,214.10 L 321.92,214.79 L 320.24,216.04 L 317.61,217.50 L 316.56,217.93 L 313.86,218.60 L 312.44,218.90 L 309.32,219.27 L 307.75,219.42 L 304.65,219.45 L 303.14,219.43 L 300.50,219.09 L 299.36,218.89 L 297.31,218.34 L 296.32,218.04 L 294.56,217.31 L 293.71,216.91 L 292.23,215.98 L 291.53,215.49 L 290.34,214.37 L 289.78,213.78 L 288.87,212.46 L 288.46,211.77 L 287.83,210.25 L 287.55,209.46 L 287.21,207.73 L 287.00,204.92 L 287.00,203.48 L 287.56,200.85 L 287.92,199.59 L 289.17,197.35 L 289.88,196.28 L 291.77,194.51 L 295.27,192.47 L 295.94,192.19 L 297.55,191.74 L 298.39,191.53 L 300.26,191.21 L 302.17,190.92 L 306.36,190.75 L 308.44,190.72 M 216.25,191.01 L 218.03,191.01 L 221.19,191.06 L 222.70,191.09 L 225.38,191.21 L 226.66,191.28 L 228.91,191.48 L 229.98,191.60 L 231.84,191.89 L 232.72,192.04 L 234.25,192.43 L 234.97,192.64 L 236.20,193.14 L 239.06,195.06 L 239.74,195.74 L 240.57,197.69 L 240.89,198.73 L 241.04,201.05 L 241.02,202.21 L 240.48,204.42 L 238.92,207.08 L 238.46,207.54 L 237.86,208.24 L 237.61,208.56 L 237.43,209.09 L 237.39,209.35 L 237.59,209.88 L 238.31,210.83 L 238.71,211.29 L 239.55,212.96 L 240.47,215.75 L 241.16,219.00 L 234.44,219.00 L 232.72,218.93 L 231.96,218.87 L 230.96,218.62 L 230.52,218.46 L 229.99,217.94 L 229.45,216.75 L 229.11,215.64 L 228.25,213.98 L 227.78,213.24 L 226.51,212.22 L 225.81,211.77 L 223.97,211.28 L 220.35,211.00 L 215.00,211.00 L 215.00,219.00 L 203.00,219.00 L 203.00,191.00 M 450.00,198.00 L 439.00,198.00 L 439.00,219.00 L 427.00,219.00 L 427.00,198.00 L 416.00,198.00 L 416.00,191.00 L 450.00,191.00 M 412.00,197.93 L 401.76,198.22 L 400.67,198.25 L 398.81,198.31 L 397.93,198.34 L 396.47,198.42 L 395.78,198.47 L 394.66,198.57 L 394.13,198.62 L 393.31,198.76 L 392.55,198.90 L 391.74,199.32 L 391.20,200.21 L 391.12,200.58 L 391.32,201.12 L 391.50,201.35 L 392.45,201.67 L 392.75,201.75 L 393.54,201.86 L 393.98,201.91 L 395.07,202.00 L 395.66,202.04 L 397.10,202.11 L 399.68,202.21 L 400.77,202.25 L 402.55,202.31 L 403.38,202.34 L 404.71,202.42 L 405.33,202.46 L 406.28,202.57 L 406.71,202.63 L 407.34,202.79 L 407.90,202.97 L 408.34,203.57 L 408.50,205.00 L 408.50,205.61 L 408.34,206.43 L 408.19,206.79 L 407.35,207.21 L 407.07,207.30 L 406.29,207.43 L 405.86,207.49 L 404.74,207.58 L 404.13,207.62 L 402.59,207.69 L 399.75,207.79 L 398.76,207.82 L 397.10,207.89 L 396.32,207.92 L 395.04,208.00 L 394.44,208.04 L 393.50,208.15 L 393.06,208.20 L 392.40,208.35 L 391.80,208.50 L 391.25,208.97 L 391.00,210.04 L 391.00,210.50 L 391.28,211.12 L 391.39,211.25 L 391.78,211.46 L 392.00,211.56 L 392.65,211.71 L 393.02,211.77 L 394.01,211.86 L 394.55,211.90 L 395.95,211.95 L 396.71,211.97 L 398.58,211.99 L 402.00,212.00 L 413.00,212.00 L 413.00,219.00 L 380.00,219.00 L 380.00,191.00 L 412.00,191.00 M 342.00,197.78 L 342.07,199.30 L 342.11,200.02 L 342.24,201.22 L 342.32,201.77 L 342.51,202.52 L 342.83,203.00 L 342.89,203.00 L 343.17,202.88 L 343.34,202.80 L 343.83,202.52 L 344.37,202.22 L 345.96,201.22 L 346.82,200.68 L 348.89,199.30 L 352.32,196.96 L 360.98,190.91 L 368.24,191.21 L 375.50,191.50 L 366.22,197.80 L 364.94,198.66 L 362.66,200.31 L 361.58,201.11 L 359.83,202.51 L 359.04,203.16 L 358.01,204.15 L 357.81,204.37 L 357.58,204.69 L 357.50,205.00 L 357.54,205.06 L 357.79,205.31 L 357.94,205.45 L 358.41,205.85 L 358.92,206.28 L 360.46,207.49 L 361.30,208.14 L 363.35,209.69 L 366.78,212.20 L 375.50,218.50 L 368.62,218.80 L 367.72,218.84 L 366.20,218.88 L 365.47,218.89 L 364.23,218.84 L 363.02,218.76 L 360.93,218.09 L 360.39,217.87 L 359.24,217.23 L 358.64,216.88 L 357.28,215.95 L 356.56,215.44 L 354.87,214.17 L 351.83,211.82 L 349.17,209.73 L 345.58,211.95 L 344.96,212.34 L 343.96,213.09 L 343.51,213.46 L 342.85,214.21 L 342.56,214.59 L 342.21,215.36 L 342.00,216.58 L 342.00,217.15 L 341.86,217.92 L 341.75,218.25 L 341.18,218.64 L 340.81,218.80 L 339.52,218.94 L 339.14,218.97 L 338.19,218.99 L 336.47,219.00 L 335.56,219.00 L 334.04,218.92 L 333.33,218.86 L 332.22,218.67 L 331.71,218.56 L 331.01,218.26 L 330.71,218.10 L 330.44,217.69 L 330.40,217.60 L 330.34,217.18 L 330.31,216.93 L 330.26,216.21 L 330.22,215.42 L 330.17,213.12 L 330.15,211.87 L 330.15,208.88 L 330.22,203.94 L 330.50,191.50 L 342.00,190.90 M 262.69,198.00 L 260.86,198.61 L 259.97,199.00 L 258.42,200.22 L 257.70,200.88 L 256.67,202.47 L 256.00,205.00 L 256.00,205.24 L 256.16,205.88 L 256.27,206.22 L 256.61,207.00 L 258.07,209.37 L 258.77,210.25 L 260.56,211.37 L 261.49,211.82 L 263.56,212.07 L 264.61,212.09 L 266.69,211.47 L 267.71,211.05 L 269.55,209.55 L 270.22,208.87 L 271.28,207.20 L 271.50,206.79 L 271.81,206.01 L 272.00,205.00 L 272.00,204.16 L 271.25,202.50 L 270.78,201.68 L 269.31,200.25 L 268.51,199.58 L 266.62,198.62 L 263.62,198.00 M 219.75,198.00 L 218.65,198.01 L 218.13,198.01 L 217.31,198.05 L 216.55,198.10 L 215.70,198.39 L 215.36,198.58 L 215.09,199.28 L 215.00,201.00 L 215.00,201.74 L 215.09,202.72 L 215.18,203.14 L 215.70,203.61 L 216.04,203.80 L 217.31,203.95 L 217.69,203.97 L 218.65,203.99 L 220.42,204.00 L 221.91,204.00 L 224.71,203.82 L 225.34,203.77 L 226.38,203.63 L 226.84,203.56 L 227.42,203.39 L 227.85,203.23 L 228.54,202.44 L 229.00,201.00 L 229.00,200.42 L 228.59,199.55 L 228.31,199.16 L 227.20,198.63 L 226.54,198.40 L 224.56,198.14 L 224.00,198.09 L 222.69,198.03 L 220.42,198.00 M 110.06,129.00 L 110.90,129.94 L 112.59,132.23 L 113.43,133.43 L 115.08,136.14 L 115.89,137.53 L 117.43,140.52 L 118.18,142.03 L 119.56,145.16 L 120.22,146.72 L 121.37,149.84 L 121.91,151.39 L 122.77,154.36 L 123.16,155.81 L 123.68,158.50 L 124.00,162.04 L 124.00,162.46 L 123.83,163.05 L 123.71,163.31 L 123.14,163.61 L 122.79,163.73 L 121.63,163.80 L 119.01,163.74 L 114.01,163.50 L 114.01,160.47 L 114.02,161.25 L 114.07,161.80 L 114.19,162.73 L 114.31,163.00 L 114.59,163.41 L 114.80,163.46 L 115.27,163.45 L 115.60,163.32 L 116.35,162.84 L 116.67,162.37 L 116.75,162.03 L 116.84,161.27 L 116.82,160.75 L 116.71,159.61 L 116.59,158.86 L 116.21,157.06 L 115.84,155.61 L 115.60,154.80 L 114.57,151.43 L 114.01,149.81 L 113.45,148.23 L 113.18,147.53 L 112.66,146.20 L 112.43,145.68 L 112.00,144.75 L 111.84,144.49 L 111.55,144.11 L 111.48,144.18 L 111.47,144.74 L 111.58,145.49 L 111.67,146.01 L 111.90,147.15 L 112.06,147.82 L 112.39,149.22 L 112.58,149.97 L 112.82,151.21 L 112.51,149.86 L 112.07,148.09 L 111.00,144.77 L 110.73,143.98 L 110.15,142.55 L 109.28,140.70 L 107.74,137.81 L 109.24,140.50 L 109.99,141.79 L 110.38,142.40 L 110.52,142.58 L 110.76,142.86 L 110.82,142.88 L 110.90,142.84 L 110.89,142.70 L 110.82,142.36 L 110.74,142.07 L 110.52,141.43 L 110.36,141.00 L 110.00,140.08 L 109.77,139.52 L 109.26,138.32 L 108.95,137.63 L 107.23,134.36 L 106.71,133.60 L 106.50,133.37 L 106.10,133.00 L 105.97,133.00 L 105.38,133.32 L 104.91,133.84 L 104.64,134.23 L 104.09,135.10 L 103.78,135.64 L 103.16,136.81 L 102.82,137.48 L 101.46,140.42 L 100.75,142.12 L 99.32,145.65 L 98.65,147.49 L 97.33,151.19 L 96.76,152.96 L 95.71,156.40 L 95.34,157.87 L 94.99,159.29 L 94.86,159.92 L 94.65,161.10 L 94.60,161.58 L 94.53,162.47 L 94.56,162.79 L 94.66,163.33 L 94.78,163.45 L 95.37,163.92 L 95.41,163.93 L 95.32,163.98 L 93.88,164.38 L 93.23,164.50 L 92.18,164.70 L 91.69,164.79 L 90.91,164.88 L 90.55,164.90 L 90.02,164.84 L 89.78,164.80 L 89.45,164.56 L 89.31,164.41 L 89.16,163.96 L 89.10,163.71 L 89.09,163.01 L 89.10,162.62 L 89.20,161.64 L 89.26,161.11 L 89.43,159.81 L 89.60,158.52 L 90.16,155.77 L 90.48,154.38 L 91.30,151.49 L 92.18,148.57 L 94.58,142.65 L 95.87,139.73 L 98.86,134.26 L 99.63,132.95 L 101.24,130.53 L 103.72,127.26 L 106.02,124.50 M 101.40,146.32 L 101.19,146.74 L 100.70,147.96 L 100.45,148.63 L 99.90,150.22 L 99.62,151.05 L 99.17,152.49 L 99.61,151.07 L 99.89,150.24 L 100.44,148.64 L 100.69,147.98 L 101.18,146.75 L 101.39,146.33 L 101.78,145.64 L 101.78,145.64 M 107.57,137.51 L 106.91,143.33 L 106.81,144.21 L 106.57,145.76 L 106.44,146.49 L 106.15,147.73 L 106.00,148.31 L 105.69,149.21 L 105.53,149.62 L 105.25,150.08 L 105.53,149.62 L 105.69,149.21 L 106.00,148.31 L 106.15,147.73 L 106.44,146.49 L 106.56,145.76 L 106.81,144.21 L 106.90,143.33 L 107.56,137.50 M 103.78,149.62 L 103.39,148.20 L 103.78,149.63 M 101.29,295.84 L 101.49,295.37 L 101.61,295.22 L 101.86,295.00 L 102.00,295.00 L 102.71,294.28 L 103.00,293.23 L 103.00,292.56 L 103.24,290.69 L 103.59,289.75 L 103.81,289.61 L 104.05,288.90 L 104.12,287.97 L 104.10,287.33 L 104.05,286.25 L 104.16,287.14 L 104.25,287.83 L 104.38,288.93 L 104.51,290.00 L 104.62,291.01 L 104.98,292.93 L 105.18,293.86 L 105.64,295.44 L 105.87,296.16 L 106.33,297.11 L 106.94,297.54 L 107.06,297.46 L 107.35,296.89 L 107.50,296.55 L 107.83,295.53 L 107.99,294.97 L 108.34,293.59 L 108.51,292.87 L 108.85,291.25 L 109.18,289.59 L 109.74,285.99 L 109.98,283.69 L 109.87,285.87 L 109.84,287.41 L 109.87,288.02 L 109.93,289.13 L 110.00,289.47 L 110.15,290.00 L 110.25,290.00 L 110.78,290.70 L 111.00,291.73 L 111.00,292.39 L 111.44,294.25 L 112.09,295.20 L 112.50,295.36 L 113.57,296.59 L 114.00,297.97 L 114.00,298.77 L 114.35,301.12 L 114.82,302.34 L 114.45,302.00 L 113.59,300.53 L 113.00,298.35 L 113.00,297.70 L 112.71,296.69 L 112.00,296.00 L 111.86,296.00 L 111.61,296.38 L 111.49,296.63 L 111.29,297.42 L 111.20,297.86 L 111.08,298.96 L 111.00,300.85 L 111.00,301.70 L 110.90,303.14 L 110.83,303.82 L 110.57,304.94 L 110.42,305.47 L 110.00,306.32 L 109.17,307.35 L 108.60,307.86 L 107.79,308.51 L 107.41,308.76 L 106.81,308.87 L 106.52,308.86 L 105.89,308.43 L 105.55,308.15 L 104.65,307.17 L 104.39,306.88 L 103.96,306.08 L 103.75,305.65 L 103.44,304.59 L 103.00,300.67 L 103.00,300.03 L 102.92,298.86 L 102.87,298.30 L 102.71,297.37 L 102.62,296.95 L 102.39,296.37 L 102.00,296.00 L 101.72,296.00 L 101.29,296.69 L 101.00,298.35 L 101.00,297.85 Z" fill="rgba(208,37,40,1)"/>
<path d="M 103.81,289.61 L 103.59,289.75 L 103.24,290.69 L 103.00,292.56 L 103.00,293.23 L 102.71,294.28 L 102.00,295.00 L 101.86,295.00 L 101.61,295.22 L 101.49,295.37 L 101.29,295.84 L 101.00,297.85 L 101.00,298.53 L 100.56,299.97 L 100.29,300.67 L 99.45,301.95 L 98.99,302.55 L 97.94,303.42 L 96.33,304.00 L 96.05,304.00 L 95.12,303.46 L 94.64,303.13 L 93.65,302.17 L 93.32,301.80 L 92.82,300.73 L 92.60,300.11 L 92.32,298.23 L 92.26,297.69 L 92.17,296.39 L 92.12,295.70 L 92.07,294.05 L 92.04,293.18 L 92.02,291.12 L 92.01,289.00 L 104.02,289.00 M 121.43,275.47 L 122.12,275.57 L 122.16,275.60 L 122.24,275.91 L 122.29,276.11 L 122.36,276.72 L 122.43,277.41 L 122.53,279.56 L 122.58,280.74 L 122.63,283.66 L 122.62,288.59 L 122.60,289.98 L 122.56,292.34 L 122.53,293.46 L 122.47,295.31 L 122.44,296.18 L 122.34,297.60 L 122.29,298.26 L 122.16,299.31 L 122.09,299.80 L 121.90,300.56 L 121.80,300.91 L 121.56,301.45 L 120.54,302.60 L 119.95,303.03 L 118.93,303.57 L 118.44,303.80 L 117.58,303.93 L 117.15,303.95 L 116.37,303.67 L 115.98,303.48 L 115.20,302.80 L 114.87,302.47 L 114.35,301.12 L 114.00,298.77 L 114.00,297.97 L 113.57,296.59 L 112.50,295.36 L 112.09,295.20 L 111.44,294.25 L 111.00,292.39 L 111.00,291.73 L 110.78,290.70 L 110.25,290.00 L 110.15,290.00 L 110.00,289.47 L 109.93,289.13 L 109.93,289.00 L 122.60,289.00 L 122.18,285.45 L 121.77,281.91 L 116.14,282.20 L 114.30,282.31 L 113.30,282.38 L 112.91,282.43 L 111.57,282.66 L 111.19,282.88 L 110.60,283.43 L 110.47,283.89 L 110.26,284.95 L 110.19,285.75 L 109.91,288.66 L 109.87,288.02 L 109.84,287.41 L 109.87,285.87 L 110.00,283.25 L 110.50,276.50 L 115.98,275.83 L 117.48,275.65 L 120.04,275.48 L 120.60,275.46 M 107.77,262.48 L 107.95,262.55 L 108.23,262.84 L 108.36,263.03 L 108.56,263.60 L 108.65,263.93 L 108.78,264.83 L 108.84,265.32 L 108.92,266.59 L 108.95,267.28 L 108.98,268.97 L 109.00,272.03 L 109.00,273.86 L 108.92,277.20 L 108.87,278.81 L 108.69,281.64 L 108.60,282.99 L 108.34,285.24 L 108.21,286.29 L 107.90,287.89 L 107.74,288.60 L 107.38,289.48 L 107.20,289.83 L 106.81,289.92 L 106.62,289.86 L 106.22,289.08 L 106.02,288.58 L 105.62,286.88 L 105.54,286.45 L 105.38,284.85 L 105.31,283.96 L 105.18,281.65 L 105.13,280.44 L 105.05,277.72 L 105.00,273.48 L 105.00,272.50 L 105.02,270.77 L 105.03,269.95 L 105.07,268.52 L 105.09,267.85 L 105.16,266.71 L 105.20,266.17 L 105.30,265.28 L 105.41,264.44 L 105.73,263.43 L 106.40,262.68 L 106.97,262.46 M 95.75,275.36 L 96.78,275.53 L 98.86,275.80 L 99.35,275.86 L 100.17,275.94 L 101.08,275.99 L 101.38,275.99 L 101.88,276.33 L 102.12,276.56 L 102.54,277.44 L 102.74,277.95 L 103.11,279.47 L 103.55,282.00 L 92.00,282.00 L 92.00,274.74 M 106.50,133.37 L 106.71,133.60 L 107.23,134.36 L 108.95,137.63 L 109.26,138.32 L 109.77,139.52 L 110.00,140.08 L 110.36,141.00 L 110.52,141.43 L 110.74,142.07 L 110.82,142.36 L 110.89,142.70 L 110.90,142.84 L 110.82,142.88 L 110.76,142.86 L 110.52,142.58 L 110.38,142.40 L 109.99,141.79 L 109.24,140.50 L 107.56,137.50 L 106.90,143.33 L 106.81,144.21 L 106.72,144.77 L 106.76,142.51 L 106.49,141.30 L 106.26,141.03 L 106.02,140.83 L 105.89,140.82 L 105.62,140.88 L 105.48,141.01 L 105.21,141.35 L 105.07,141.64 L 104.81,142.30 L 104.69,142.75 L 104.48,143.38 L 104.36,143.53 L 104.31,143.47 L 104.21,143.26 L 104.18,143.01 L 104.11,142.43 L 104.09,142.00 L 103.97,140.75 L 103.87,140.28 L 103.79,140.23 L 103.60,140.24 L 103.46,140.41 L 103.15,140.86 L 102.93,141.24 L 102.43,143.56 L 102.50,144.58 L 102.60,145.17 L 102.84,146.41 L 102.88,146.54 L 102.69,146.12 L 102.56,145.88 L 102.29,145.60 L 101.91,145.56 L 101.78,145.64 L 101.39,146.33 L 101.18,146.75 L 100.69,147.98 L 100.44,148.64 L 99.89,150.24 L 99.61,151.07 L 99.05,152.87 L 98.51,154.69 L 97.62,158.19 L 97.43,158.99 L 97.17,160.36 L 97.00,161.86 L 97.00,162.37 L 96.82,163.13 L 96.71,163.47 L 96.34,163.86 L 96.13,164.01 L 95.63,163.99 L 95.37,163.92 L 94.78,163.45 L 94.66,163.33 L 94.56,162.79 L 94.53,162.47 L 94.60,161.58 L 94.65,161.10 L 94.86,159.92 L 94.99,159.29 L 95.34,157.87 L 95.71,156.40 L 96.76,152.96 L 97.33,151.19 L 98.65,147.49 L 99.32,145.65 L 100.75,142.12 L 101.46,140.42 L 102.82,137.48 L 103.16,136.81 L 103.78,135.64 L 104.09,135.10 L 104.64,134.23 L 104.91,133.84 L 105.38,133.32 L 105.97,133.00 L 106.10,133.00 M 111.84,144.49 L 112.00,144.75 L 112.43,145.68 L 112.66,146.20 L 113.18,147.53 L 113.45,148.23 L 114.01,149.81 L 114.57,151.43 L 115.60,154.80 L 115.84,155.61 L 116.21,157.06 L 116.59,158.86 L 116.71,159.61 L 116.82,160.75 L 116.84,161.27 L 116.75,162.03 L 116.67,162.37 L 116.35,162.84 L 115.60,163.32 L 115.27,163.45 L 114.80,163.46 L 114.59,163.41 L 114.31,163.00 L 114.19,162.73 L 114.07,161.80 L 114.02,161.25 L 114.00,159.69 L 114.00,159.10 L 113.89,157.60 L 113.82,156.82 L 113.58,155.08 L 112.58,149.97 L 112.39,149.22 L 112.06,147.82 L 111.90,147.15 L 111.67,146.01 L 111.58,145.49 L 111.47,144.74 L 111.48,144.18 L 111.55,144.11 M 103.54,148.70 L 103.88,149.48 L 104.05,149.74 L 104.39,150.18 L 104.56,150.26 L 104.90,150.35 L 105.06,150.26 L 105.22,150.13 L 105.20,150.17 L 105.03,150.40 L 104.70,150.58 L 104.54,150.62 L 104.22,150.41 L 104.07,150.25 L 103.78,149.63 L 103.50,148.59 Z" fill="rgba(231,146,65,1)"/>
<path d="M 92.00,285.50 L 92.00,282.00 L 97.89,282.00 L 103.78,282.00 L 104.19,285.50 L 104.60,289.00 L 98.30,289.00 L 92.00,289.00 L 92.00,285.50 M 110.19,285.75 L 110.26,284.95 L 110.47,283.89 L 110.60,283.43 L 111.19,282.88 L 111.57,282.66 L 112.91,282.43 L 113.30,282.38 L 114.30,282.31 L 116.14,282.20 L 121.77,281.91 L 122.18,285.45 L 122.60,289.00 L 116.24,289.00 L 109.87,289.00 L 110.19,285.75 M 116.00,271.61 L 116.00,271.00 L 116.31,270.01 L 116.52,269.56 L 117.25,268.89 L 117.67,268.59 L 118.84,268.22 L 121.08,268.00 L 121.72,268.00 L 122.52,268.58 L 122.83,268.94 L 122.99,269.97 L 122.99,270.50 L 122.51,271.61 L 121.07,272.96 L 120.25,273.40 L 118.91,273.85 L 118.28,274.01 L 117.32,273.91 L 116.89,273.80 L 116.34,273.16 L 116.11,272.78 M 75.69,265.36 L 75.46,265.13 L 75.36,264.60 L 75.36,264.33 L 75.65,263.83 L 75.84,263.59 L 76.43,263.24 L 77.56,263.00 L 77.96,263.00 L 78.58,263.44 L 79.00,264.50 L 79.00,264.88 L 78.65,265.44 L 78.43,265.68 L 77.80,265.94 L 77.46,266.03 L 76.71,265.94 L 76.35,265.85 M 116.00,258.75 L 116.00,258.32 L 115.98,257.20 L 115.97,256.60 L 115.94,255.18 L 115.90,253.70 L 115.79,250.08 L 115.72,248.20 L 115.56,244.12 L 115.29,238.00 L 115.22,236.60 L 115.09,234.21 L 115.03,233.09 L 114.91,231.23 L 114.85,230.36 L 114.74,229.00 L 114.69,228.38 L 114.58,227.50 L 114.52,227.12 L 114.41,226.69 L 114.36,226.53 L 114.24,226.52 L 114.19,226.57 L 114.06,226.97 L 113.86,228.00 L 113.77,228.62 L 113.58,230.48 L 113.49,231.48 L 113.34,233.90 L 113.07,241.75 L 113.06,243.45 L 112.95,246.12 L 112.89,247.35 L 112.71,249.10 L 112.61,249.86 L 112.37,250.71 L 112.25,251.03 L 111.99,251.01 L 111.86,250.89 L 111.61,250.02 L 111.49,249.48 L 111.27,247.79 L 111.17,246.84 L 111.02,244.35 L 110.89,239.75 L 110.87,238.20 L 110.79,234.63 L 110.74,232.81 L 110.61,229.01 L 110.54,227.13 L 110.37,223.58 L 110.10,219.00 L 109.43,209.50 L 108.68,216.50 L 108.52,217.97 L 108.24,220.55 L 108.10,221.79 L 107.86,223.91 L 107.74,224.92 L 107.53,226.62 L 107.43,227.42 L 107.26,228.72 L 107.17,229.32 L 107.02,230.25 L 106.95,230.67 L 106.82,231.25 L 106.76,231.50 L 106.65,231.77 L 106.51,231.84 L 106.46,231.79 L 106.35,230.93 L 106.30,230.39 L 106.18,228.71 L 106.12,227.79 L 106.00,225.51 L 105.84,221.67 L 105.80,220.31 L 105.66,217.76 L 105.58,216.52 L 105.39,214.38 L 105.30,213.38 L 105.09,211.89 L 104.77,210.67 L 104.52,210.26 L 104.21,210.14 L 104.02,211.00 L 104.02,211.53 L 103.98,212.85 L 103.95,213.54 L 103.86,215.13 L 103.76,216.79 L 103.45,220.72 L 103.27,222.76 L 102.84,227.17 L 102.62,229.40 L 102.12,233.90 L 101.87,236.13 L 101.35,240.32 L 101.09,242.33 L 100.59,245.82 L 100.46,246.63 L 100.23,248.05 L 100.12,248.72 L 99.91,249.83 L 99.81,250.34 L 99.62,251.09 L 99.38,251.75 L 98.93,252.46 L 97.98,253.35 L 97.50,253.71 L 96.54,253.91 L 96.06,253.92 L 95.15,253.41 L 93.93,251.87 L 93.86,251.74 L 93.70,250.99 L 93.62,250.55 L 93.44,249.22 L 93.35,248.50 L 93.16,246.66 L 93.06,245.69 L 92.85,243.41 L 92.75,242.22 L 92.54,239.57 L 92.43,238.20 L 92.22,235.24 L 92.01,232.21 L 91.59,225.52 L 91.18,218.70 L 90.52,204.66 L 90.38,201.29 L 90.18,195.13 L 90.14,193.66 L 90.08,190.95 L 90.04,187.29 L 90.03,186.00 L 90.04,183.88 L 90.06,182.89 L 90.15,181.29 L 90.21,180.55 L 90.44,179.38 L 90.57,178.84 L 90.99,178.02 L 91.23,177.64 L 91.90,177.08 L 92.26,176.82 L 93.23,176.42 L 93.75,176.24 L 95.07,175.93 L 97.52,175.46 L 98.61,175.26 L 100.77,174.68 L 101.27,174.53 L 102.10,174.23 L 103.00,173.81 L 103.17,173.70 L 103.35,173.53 L 103.41,173.46 L 103.33,173.35 L 103.25,173.30 L 102.86,173.25 L 102.63,173.24 L 101.89,173.26 L 101.47,173.27 L 100.34,173.36 L 99.71,173.41 L 98.13,173.56 L 97.28,173.64 L 95.21,173.86 L 91.50,174.27 L 91.10,174.32 L 90.51,174.26 L 90.25,174.19 L 89.90,173.86 L 89.75,173.66 L 89.59,173.00 L 89.50,171.55 L 89.50,170.98 L 89.81,169.97 L 90.02,169.48 L 90.74,168.62 L 91.16,168.21 L 92.30,167.50 L 92.92,167.17 L 94.48,166.62 L 95.31,166.37 L 97.28,165.97 L 98.31,165.79 L 100.70,165.55 L 101.94,165.45 L 104.74,165.37 L 109.41,165.41 L 110.80,165.46 L 113.55,165.60 L 114.90,165.68 L 117.36,165.87 L 118.53,165.96 L 120.42,166.18 L 122.30,166.49 L 122.93,166.66 L 123.79,167.00 L 124.16,167.19 L 124.59,167.72 L 124.77,168.02 L 124.88,168.92 L 124.80,170.87 L 124.72,171.90 L 124.45,173.22 L 124.34,173.49 L 123.97,173.89 L 123.75,174.06 L 123.10,174.27 L 122.72,174.35 L 121.67,174.39 L 121.09,174.39 L 119.55,174.29 L 118.71,174.22 L 116.58,173.99 L 112.61,173.54 L 111.48,173.41 L 109.66,173.25 L 108.83,173.20 L 107.62,173.19 L 107.09,173.21 L 106.51,173.35 L 106.34,173.74 L 106.42,173.87 L 107.05,174.18 L 107.43,174.33 L 108.54,174.64 L 109.14,174.79 L 110.58,175.07 L 112.97,175.42 L 114.62,175.60 L 118.06,176.19 L 118.86,176.34 L 120.26,176.66 L 121.85,177.10 L 124.73,178.10 L 124.23,212.80 L 124.20,215.19 L 124.11,219.78 L 124.07,222.04 L 123.97,226.30 L 123.92,228.38 L 123.80,232.22 L 123.75,234.08 L 123.62,237.40 L 123.56,238.99 L 123.43,241.70 L 123.37,242.97 L 123.24,244.97 L 123.18,245.87 L 123.05,247.06 L 122.87,247.83 L 122.75,247.88 L 122.53,248.63 L 122.43,249.09 L 122.25,250.54 L 122.18,251.33 L 122.07,253.29 L 122.00,256.58 L 122.00,265.00 L 119.00,265.00 L 116.00,265.00 L 116.00,258.75 M 111.80,205.45 L 112.73,204.98 L 114.63,203.57 L 115.57,202.80 L 117.29,200.99 L 118.11,200.06 L 119.40,198.13 L 120.61,195.42 L 120.78,194.74 L 120.90,193.32 L 120.93,192.60 L 120.78,191.14 L 120.57,189.68 L 119.44,186.81 L 118.76,185.41 L 116.83,182.95 L 116.30,182.38 L 115.13,181.37 L 113.21,180.11 L 112.40,179.68 L 110.17,179.20 L 108.99,179.03 L 106.41,179.06 L 105.11,179.14 L 102.65,179.64 L 99.64,180.90 L 98.69,181.53 L 96.96,183.52 L 96.15,184.60 L 94.84,187.16 L 94.25,188.47 L 93.57,191.13 L 93.45,191.78 L 93.36,193.02 L 93.48,194.72 L 93.67,195.73 L 94.61,197.86 L 95.17,198.91 L 96.69,200.94 L 97.50,201.92 L 99.38,203.60 L 102.38,205.47 L 103.42,205.93 L 105.09,206.49 L 105.88,206.72 L 107.27,206.83 L 107.95,206.83 L 109.36,206.49 L 110.09,206.25 M 137.00,263.57 L 137.00,263.11 L 137.58,262.44 L 139.08,262.00 L 139.69,262.00 L 140.40,262.37 L 140.67,262.60 L 140.73,263.23 L 140.68,263.55 L 140.13,264.18 L 138.67,264.82 L 138.17,264.92 L 137.46,264.62 L 137.17,264.40 M 64.57,244.19 L 63.69,243.59 L 62.22,242.76 L 61.49,242.39 L 59.91,241.95 L 59.06,241.77 L 56.87,241.60 L 56.26,241.57 L 54.84,241.54 L 52.32,241.54 L 44.01,241.57 L 43.47,238.54 L 43.39,238.12 L 43.24,236.92 L 43.17,236.28 L 43.02,234.78 L 42.71,230.00 L 42.67,228.76 L 42.66,227.05 L 42.68,226.29 L 42.88,225.35 L 43.02,224.95 L 43.50,224.52 L 44.65,224.19 L 45.24,224.11 L 46.31,223.41 L 47.30,221.94 L 47.47,221.29 L 48.34,220.48 L 50.43,220.00 L 50.95,220.00 L 51.75,220.13 L 52.11,220.22 L 52.64,220.58 L 52.88,220.80 L 53.23,221.46 L 53.63,222.88 L 53.74,223.43 L 54.13,224.38 L 54.37,224.83 L 55.10,225.63 L 55.52,226.02 L 56.70,226.80 L 59.09,228.04 L 59.76,228.36 L 61.38,229.34 L 62.21,229.87 L 63.99,231.17 L 64.88,231.85 L 66.60,233.31 L 68.90,235.49 L 73.83,240.65 L 71.81,243.82 L 71.26,244.70 L 70.20,246.05 L 69.96,246.33 L 69.56,246.71 L 69.15,246.94 L 69.06,246.93 L 68.59,246.70 L 68.31,246.56 L 67.54,246.11 L 66.71,245.61 M 141.25,241.03 L 140.80,240.34 L 139.99,239.02 L 139.60,238.38 L 138.95,237.24 L 138.66,236.71 L 138.26,235.90 L 138.00,235.17 L 138.00,234.99 L 138.22,234.62 L 138.36,234.44 L 138.83,234.07 L 139.35,233.71 L 140.95,233.05 L 141.81,232.74 L 143.82,232.29 L 146.92,232.00 L 147.76,232.00 L 148.96,231.91 L 149.49,231.84 L 150.20,231.53 L 150.51,231.34 L 150.90,230.70 L 151.34,229.25 L 151.53,228.35 L 152.09,226.67 L 152.40,225.85 L 153.18,224.34 L 153.60,223.61 L 154.60,222.29 L 155.13,221.65 L 156.35,220.52 L 156.98,219.97 L 158.40,219.03 L 159.14,218.58 L 160.76,217.84 L 161.60,217.49 L 163.42,216.94 L 166.35,216.37 L 170.74,215.76 L 171.44,221.37 L 171.56,222.29 L 171.70,223.89 L 171.76,224.65 L 171.78,225.96 L 171.78,226.59 L 171.66,227.66 L 171.59,228.16 L 171.32,229.03 L 171.01,229.86 L 169.86,231.07 L 167.21,232.56 L 166.03,233.05 L 164.06,234.11 L 163.14,234.66 L 161.64,235.89 L 160.93,236.54 L 159.79,238.03 L 158.39,240.65 L 158.11,241.32 L 157.55,242.29 L 157.25,242.72 L 156.53,243.31 L 156.13,243.57 L 155.04,243.91 L 152.78,244.28 L 151.60,244.41 L 149.17,244.80 L 148.60,244.91 L 147.61,245.11 L 146.50,245.40 L 146.10,245.53 L 145.37,245.50 L 145.01,245.43 L 144.25,244.92 L 143.86,244.59 L 142.95,243.48 L 142.46,242.85 M 142.00,218.47 L 142.00,218.01 L 141.41,217.14 L 140.00,216.29 L 139.41,216.14 L 138.62,215.67 L 138.30,215.43 L 138.05,214.91 L 138.00,214.67 L 138.34,214.27 L 139.53,214.00 L 139.95,214.00 L 140.88,213.34 L 141.98,211.75 L 142.90,209.50 L 143.55,211.69 L 143.73,212.30 L 144.64,213.37 L 146.35,214.32 L 148.50,214.75 L 146.25,215.49 L 145.63,215.69 L 144.66,216.40 L 144.00,217.56 L 144.00,217.92 L 143.71,218.67 L 143.00,219.50 L 142.72,219.67 L 142.29,219.45 L 142.11,219.26 M 154.33,208.42 L 154.15,207.95 L 154.22,207.03 L 154.31,206.59 L 154.78,205.88 L 155.05,205.56 L 155.77,205.25 L 156.91,205.45 L 157.31,205.69 L 157.76,206.38 L 157.93,206.74 L 157.95,207.52 L 157.91,207.91 L 157.51,208.61 L 156.46,209.38 L 156.02,209.55 L 155.19,209.36 L 154.81,209.19 M 63.00,205.00 L 63.00,204.72 L 63.73,204.29 L 65.50,204.00 L 66.19,204.00 L 67.27,204.29 L 68.00,205.00 L 68.00,205.27 L 67.27,205.71 L 65.50,206.00 L 64.81,206.00 L 63.73,205.71 L 63.28,205.52 M 51.70,201.40 L 51.21,200.74 L 50.70,199.70 L 50.62,199.49 L 50.60,199.19 L 50.80,199.00 L 51.05,199.00 L 51.75,198.34 L 52.78,196.75 L 52.99,196.32 L 53.30,195.75 L 53.45,195.52 L 53.65,195.34 L 53.74,195.30 L 53.85,195.50 L 53.93,196.20 L 53.95,196.67 L 54.49,197.70 L 55.75,198.92 L 56.27,199.22 L 56.65,199.66 L 56.22,199.97 L 55.87,199.98 L 55.10,200.55 L 54.22,201.90 L 54.05,202.34 L 53.78,202.89 L 53.64,203.10 L 53.34,203.16 L 53.18,203.13 L 52.71,202.68 L 52.45,202.39 M 71.02,198.25 L 71.02,198.04 L 71.31,197.28 L 72.00,196.00 L 72.20,195.70 L 72.48,195.35 L 72.61,195.22 L 72.78,195.24 L 72.85,195.29 L 72.94,195.69 L 72.98,196.75 L 72.99,197.37 L 72.70,198.34 L 72.00,199.00 L 71.72,199.00 L 71.30,198.78 L 71.12,198.64 M 142.50,193.69 L 140.50,191.50 L 142.75,189.09 L 143.18,188.63 L 143.83,188.01 L 144.13,187.75 L 144.53,187.53 L 144.70,187.47 L 144.89,187.63 L 145.00,188.29 L 145.00,188.73 L 145.51,189.73 L 146.75,190.92 L 147.27,191.22 L 147.65,191.66 L 147.22,191.97 L 146.87,191.98 L 146.10,192.56 L 145.22,193.94 L 145.04,194.41 L 144.77,195.00 L 144.64,195.23 L 144.33,195.32 L 144.15,195.30 L 143.65,194.89 L 143.35,194.62 M 72.64,185.50 L 72.48,185.09 L 71.78,184.44 L 70.53,184.00 L 70.11,184.00 L 69.45,183.71 L 69.00,183.00 L 69.00,182.72 L 69.45,182.29 L 70.53,182.00 L 70.95,182.00 L 71.78,181.56 L 72.64,180.50 L 72.80,180.09 L 73.31,179.44 L 74.11,179.00 L 74.35,179.00 L 74.74,179.44 L 75.00,180.50 L 75.00,180.91 L 75.51,181.57 L 76.75,182.03 L 77.17,182.04 L 77.69,182.08 L 77.90,182.11 L 78.00,182.25 L 78.00,182.34 L 77.69,182.65 L 76.75,183.39 L 76.27,183.76 L 75.51,184.67 L 75.00,185.86 L 75.00,186.27 L 74.73,186.75 L 74.56,186.93 L 74.07,186.96 L 73.82,186.92 L 73.29,186.53 L 73.04,186.29 M 134.71,179.99 L 134.57,179.45 L 133.65,178.32 L 131.84,177.11 L 129.50,176.21 L 132.25,175.13 L 133.01,174.83 L 134.19,173.88 L 134.44,173.63 L 134.78,173.12 L 135.00,172.40 L 135.00,172.09 L 135.14,171.77 L 135.24,171.65 L 135.60,171.74 L 135.82,171.84 L 136.45,172.35 L 137.75,173.62 L 138.37,174.27 L 139.17,175.18 L 139.50,175.59 L 139.76,176.15 L 139.83,176.39 L 139.60,176.75 L 138.75,177.22 L 138.27,177.42 L 137.51,178.16 L 137.00,179.41 L 137.00,179.99 L 136.72,180.79 L 136.55,181.13 L 136.07,181.40 L 135.82,181.46 L 135.31,181.15 L 135.07,180.92 M 103.03,147.11 L 102.84,146.41 L 102.60,145.17 L 102.50,144.58 L 102.43,143.56 L 102.93,141.24 L 103.15,140.86 L 103.46,140.41 L 103.60,140.24 L 103.79,140.23 L 103.87,140.28 L 103.97,140.75 L 104.09,142.00 L 104.11,142.43 L 104.18,143.01 L 104.21,143.26 L 104.31,143.47 L 104.36,143.53 L 104.48,143.38 L 104.69,142.75 L 104.81,142.30 L 105.07,141.64 L 105.21,141.35 L 105.48,141.01 L 105.62,140.88 L 105.89,140.82 L 106.02,140.83 L 106.26,141.03 L 106.49,141.30 L 106.76,142.51 L 106.71,145.12 L 106.61,145.88 L 106.37,147.16 L 106.25,147.76 L 105.98,148.70 L 105.84,149.13 L 105.54,149.74 L 105.38,150.00 L 105.06,150.26 L 104.90,150.35 L 104.56,150.26 L 104.39,150.18 L 104.05,149.74 L 103.88,149.48 L 103.54,148.70 L 103.37,148.26 M 103.18,201.13 L 102.94,200.98 L 102.91,200.44 L 102.98,200.12 L 103.63,199.19 L 104.05,198.66 L 105.43,197.26 L 108.40,194.55 L 109.16,193.88 L 110.44,192.78 L 111.04,192.26 L 112.03,191.44 L 112.50,191.07 L 113.26,190.50 L 113.62,190.25 L 114.20,189.93 L 114.75,189.65 L 115.52,189.70 L 116.59,190.45 L 117.04,190.90 L 117.65,191.68 L 117.87,192.32 L 117.82,192.35 L 117.31,192.78 L 117.01,193.04 L 116.08,193.86 L 115.57,194.31 L 114.34,195.41 L 112.29,197.27 L 111.64,197.87 L 110.49,198.87 L 109.94,199.34 L 108.99,200.10 L 108.08,200.81 L 106.67,201.56 L 106.01,201.84 L 104.88,201.84 L 104.32,201.76 M 98.04,196.08 L 97.82,195.67 L 97.73,194.90 L 97.76,194.51 L 98.29,193.59 L 98.66,193.08 L 100.01,191.76 L 100.41,191.39 L 101.39,190.53 L 103.16,189.03 L 104.61,187.81 L 107.14,186.06 L 107.74,185.67 L 108.82,185.08 L 109.34,184.82 L 110.28,184.46 L 110.73,184.31 L 111.51,184.19 L 111.88,184.16 L 112.49,184.28 L 112.78,184.37 L 113.22,184.73 L 113.68,185.54 L 113.72,185.66 L 113.22,186.34 L 112.89,186.74 L 111.80,187.88 L 111.20,188.48 L 109.72,189.89 L 108.95,190.61 L 107.26,192.12 L 106.42,192.87 L 104.73,194.30 L 103.91,194.99 L 102.42,196.18 L 101.71,196.73 L 100.61,197.50 L 99.61,198.00 L 99.46,198.00 L 98.93,197.44 L 98.64,197.09 Z" fill="rgba(231,230,234,1)"/>
</g>
</svg>